Lexend-wght100-XTRA489-SPACmin.ufo
<glyph name="exclam" format="2">
	<advance width="263"/>
	<unicode hex="0021"/>
	<note>
		exclam
	</note>
	<outline>
		<contour>
			<point x="142" y="241" type="qcurve"/>
			<point x="126" y="241" type="line"/>
			<point x="124" y="326"/>
			<point x="123" y="528"/>
			<point x="123" y="630" type="qcurve"/>
			<point x="123" y="700" type="line"/>
			<point x="145" y="700" type="line"/>
			<point x="145" y="630" type="line" smooth="yes"/>
			<point x="145" y="533"/>
			<point x="144" y="327"/>
		</contour>
		<contour>
			<point x="169" y="28" type="qcurve" smooth="yes"/>
			<point x="169" y="14"/>
			<point x="148" y="-6"/>
			<point x="134" y="-6" type="qcurve" smooth="yes"/>
			<point x="119" y="-6"/>
			<point x="98" y="14"/>
			<point x="98" y="28" type="qcurve" smooth="yes"/>
			<point x="98" y="43"/>
			<point x="119" y="62"/>
			<point x="134" y="62" type="qcurve" smooth="yes"/>
			<point x="148" y="62"/>
			<point x="169" y="43"/>
		</contour>
	</outline>
</glyph>
<glyph name="quotedbl" format="2">
	<advance width="378"/>
	<unicode hex="0022"/>
	<note>
		quotedbl
	</note>
	<outline>
		<contour>
			<point x="80" y="422" type="line"/>
			<point x="118" y="700" type="line"/>
			<point x="158" y="700" type="line"/>
			<point x="100" y="422" type="line"/>
		</contour>
		<contour>
			<point x="220" y="422" type="line"/>
			<point x="258" y="700" type="line"/>
			<point x="298" y="700" type="line"/>
			<point x="240" y="422" type="line"/>
		</contour>
	</outline>
</glyph>
<glyph name="numbersign" format="2">
	<advance width="837"/>
	<unicode hex="0023"/>
	<note>
		numbersign
	</note>
	<outline>
		<contour>
			<point x="199" y="0" type="line"/>
			<point x="177" y="0" type="line"/>
			<point x="297" y="700" type="line"/>
			<point x="319" y="700" type="line"/>
		</contour>
		<contour>
			<point x="796" y="470" type="line"/>
			<point x="79" y="470" type="line"/>
			<point x="79" y="492" type="line"/>
			<point x="796" y="492" type="line"/>
		</contour>
		<contour>
			<point x="558" y="0" type="line"/>
			<point x="536" y="0" type="line"/>
			<point x="656" y="700" type="line"/>
			<point x="678" y="700" type="line"/>
		</contour>
		<contour>
			<point x="759" y="206" type="line"/>
			<point x="41" y="206" type="line"/>
			<point x="41" y="228" type="line"/>
			<point x="759" y="228" type="line"/>
		</contour>
	</outline>
</glyph>
<glyph name="ampersand" format="2">
	<advance width="757"/>
	<unicode hex="0026"/>
	<note>
		ampersand
	</note>
	<outline>
		<contour>
			<point x="364" y="-10" type="qcurve"/>
			<point x="208" y="-10"/>
			<point x="50" y="109"/>
			<point x="50" y="210" type="qcurve"/>
			<point x="50" y="263"/>
			<point x="127" y="374"/>
			<point x="209" y="413" type="qcurve"/>
			<point x="228" y="397" type="line"/>
			<point x="148" y="361"/>
			<point x="73" y="260"/>
			<point x="73" y="214" type="qcurve"/>
			<point x="73" y="126"/>
			<point x="214" y="12"/>
			<point x="366" y="12" type="qcurve"/>
			<point x="483" y="12"/>
			<point x="695" y="145"/>
			<point x="714" y="335" type="qcurve"/>
			<point x="737" y="335" type="line"/>
			<point x="715" y="131"/>
			<point x="488" y="-11"/>
		</contour>
		<contour>
			<point x="680" y="0" type="line"/>
			<point x="647" y="0" type="line"/>
			<point x="581" y="61" type="line"/>
			<point x="554" y="85" type="line"/>
			<point x="315" y="301" type="line"/>
			<point x="231" y="374"/>
			<point x="127" y="469"/>
			<point x="127" y="533" type="qcurve"/>
			<point x="127" y="601"/>
			<point x="248" y="707"/>
			<point x="359" y="707" type="qcurve" smooth="yes"/>
			<point x="450" y="707"/>
			<point x="581" y="642"/>
			<point x="633" y="570" type="qcurve"/>
			<point x="620" y="549" type="line"/>
			<point x="563" y="629"/>
			<point x="436" y="685"/>
			<point x="362" y="685" type="qcurve"/>
			<point x="250" y="685"/>
			<point x="150" y="585"/>
			<point x="150" y="536" type="qcurve"/>
			<point x="150" y="480"/>
			<point x="225" y="410"/>
			<point x="262" y="377" type="qcurve" smooth="yes"/>
			<point x="592" y="84" type="line"/>
			<point x="607" y="68" type="line"/>
		</contour>
	</outline>
</glyph>
<glyph name="quotesingle" format="2">
	<advance width="180"/>
	<unicode hex="0027"/>
	<note>
		quotesingle
	</note>
	<outline>
		<contour>
			<point x="56" y="422" type="line"/>
			<point x="84" y="700" type="line"/>
			<point x="114" y="700" type="line"/>
			<point x="74" y="422" type="line"/>
		</contour>
	</outline>
</glyph>
<glyph name="parenleft" format="2">
	<advance width="455"/>
	<unicode hex="0028"/>
	<note>
		parenleft
	</note>
	<outline>
		<contour>
			<point x="60" y="258" type="qcurve"/>
			<point x="60" y="385"/>
			<point x="241" y="612"/>
			<point x="434" y="691" type="qcurve"/>
			<point x="445" y="670" type="line"/>
			<point x="267" y="598"/>
			<point x="83" y="383"/>
			<point x="83" y="258" type="qcurve" smooth="yes"/>
			<point x="83" y="133"/>
			<point x="267" y="-80"/>
			<point x="445" y="-154" type="qcurve"/>
			<point x="435" y="-174" type="line"/>
			<point x="240" y="-93"/>
			<point x="60" y="132"/>
		</contour>
	</outline>
</glyph>
<glyph name="asterisk" format="2">
	<advance width="442"/>
	<unicode hex="002A"/>
	<note>
		asterisk
	</note>
	<outline>
		<contour>
			<point x="231" y="376" type="line"/>
			<point x="207" y="376" type="line"/>
			<point x="211" y="536" type="line"/>
			<point x="221" y="531" type="line"/>
			<point x="66" y="455" type="line"/>
			<point x="53" y="475" type="line"/>
			<point x="215" y="545" type="line"/>
			<point x="216" y="531" type="line"/>
			<point x="53" y="603" type="line"/>
			<point x="66" y="625" type="line"/>
			<point x="223" y="544" type="line"/>
			<point x="211" y="528" type="line"/>
			<point x="207" y="700" type="line"/>
			<point x="231" y="700" type="line"/>
			<point x="227" y="539" type="line"/>
			<point x="213" y="543" type="line"/>
			<point x="374" y="625" type="line"/>
			<point x="387" y="603" type="line"/>
			<point x="228" y="534" type="line"/>
			<point x="228" y="545" type="line"/>
			<point x="387" y="475" type="line"/>
			<point x="374" y="455" type="line"/>
			<point x="219" y="532" type="line"/>
			<point x="227" y="534" type="line"/>
		</contour>
	</outline>
</glyph>
<glyph name="comma" format="2">
	<advance width="216"/>
	<unicode hex="002C"/>
	<note>
		comma
	</note>
	<outline>
		<contour>
			<point x="104" y="54" type="qcurve"/>
			<point x="126" y="54"/>
			<point x="150" y="23"/>
			<point x="150" y="-7" type="qcurve"/>
			<point x="150" y="-41"/>
			<point x="121" y="-89"/>
			<point x="86" y="-122" type="qcurve"/>
			<point x="77" y="-110" type="line"/>
			<point x="96" y="-89"/>
			<point x="122" y="-49"/>
			<point x="122" y="-36" type="qcurve"/>
			<point x="122" y="-20"/>
			<point x="107" y="-6"/>
			<point x="97" y="-3" type="qcurve" smooth="yes"/>
			<point x="85" y="1"/>
			<point x="74" y="15"/>
			<point x="74" y="26" type="qcurve"/>
			<point x="74" y="38"/>
			<point x="89" y="54"/>
		</contour>
	</outline>
</glyph>
<glyph name="hyphen" format="2">
	<advance width="464"/>
	<unicode hex="002D"/>
	<note>
		hyphen
	</note>
	<outline>
		<contour>
			<point x="404" y="266" type="line"/>
			<point x="60" y="266" type="line"/>
			<point x="60" y="288" type="line"/>
			<point x="404" y="288" type="line"/>
		</contour>
	</outline>
</glyph>
<glyph name="slash" format="2">
	<advance width="569"/>
	<unicode hex="002F"/>
	<note>
		slash
	</note>
	<outline>
		<contour>
			<point x="102" y="-95" type="line"/>
			<point x="75" y="-95" type="line"/>
			<point x="469" y="700" type="line"/>
			<point x="496" y="700" type="line"/>
		</contour>
	</outline>
</glyph>
<glyph name="zero" format="2">
	<advance width="730"/>
	<unicode hex="0030"/>
	<outline>
		<contour>
			<point x="678" y="350" type="qcurve"/>
			<point x="678" y="184"/>
			<point x="526" y="-10"/>
			<point x="370" y="-10" type="qcurve"/>
			<point x="210" y="-10"/>
			<point x="52" y="184"/>
			<point x="52" y="350" type="qcurve"/>
			<point x="52" y="516"/>
			<point x="210" y="710"/>
			<point x="370" y="710" type="qcurve"/>
			<point x="526" y="710"/>
			<point x="678" y="516"/>
		</contour>
		<contour>
			<point x="75" y="350" type="qcurve"/>
			<point x="75" y="187"/>
			<point x="230" y="12"/>
			<point x="370" y="12" type="qcurve"/>
			<point x="507" y="12"/>
			<point x="655" y="187"/>
			<point x="655" y="350" type="qcurve"/>
			<point x="655" y="513"/>
			<point x="507" y="688"/>
			<point x="370" y="688" type="qcurve"/>
			<point x="230" y="688"/>
			<point x="75" y="513"/>
		</contour>
	</outline>
</glyph>
<glyph name="three" format="2">
	<advance width="629"/>
	<unicode hex="0033"/>
	<outline>
		<contour>
			<point x="20" y="138" type="qcurve"/>
			<point x="35" y="157" type="line"/>
			<point x="81" y="92"/>
			<point x="228" y="12"/>
			<point x="316" y="12" type="qcurve"/>
			<point x="438" y="12"/>
			<point x="570" y="129"/>
			<point x="570" y="219" type="qcurve"/>
			<point x="570" y="302"/>
			<point x="468" y="411"/>
			<point x="370" y="411" type="qcurve"/>
			<point x="312" y="411"/>
			<point x="261" y="389"/>
			<point x="223" y="363" type="qcurve"/>
			<point x="207" y="373" type="line"/>
			<point x="562" y="687" type="line"/>
			<point x="568" y="678" type="line"/>
			<point x="89" y="678" type="line"/>
			<point x="89" y="700" type="line"/>
			<point x="575" y="700" type="line"/>
			<point x="579" y="671" type="line"/>
			<point x="266" y="395" type="line"/>
			<point x="251" y="401" type="line"/>
			<point x="277" y="417"/>
			<point x="326" y="433"/>
			<point x="361" y="433" type="qcurve"/>
			<point x="477" y="433"/>
			<point x="593" y="314"/>
			<point x="593" y="228" type="qcurve"/>
			<point x="593" y="116"/>
			<point x="442" y="-10"/>
			<point x="318" y="-10" type="qcurve"/>
			<point x="218" y="-10"/>
			<point x="67" y="72"/>
		</contour>
	</outline>
</glyph>
<glyph name="nine" format="2">
	<advance width="638"/>
	<unicode hex="0039"/>
	<outline>
		<contour>
			<point x="47" y="478" type="qcurve" smooth="yes"/>
			<point x="47" y="569"/>
			<point x="201" y="710"/>
			<point x="325" y="710" type="qcurve"/>
			<point x="431" y="710"/>
			<point x="590" y="577"/>
			<point x="592" y="467" type="qcurve" smooth="yes"/>
			<point x="593" y="408"/>
			<point x="520" y="273"/>
			<point x="469" y="188" type="qcurve" smooth="yes"/>
			<point x="357" y="0" type="line"/>
			<point x="335" y="0" type="line"/>
			<point x="333" y="5" type="line"/>
			<point x="565" y="383" type="line"/>
			<point x="576" y="417" type="line"/>
			<point x="567" y="354"/>
			<point x="422" y="245"/>
			<point x="315" y="245" type="qcurve" smooth="yes"/>
			<point x="202" y="245"/>
			<point x="47" y="373"/>
		</contour>
		<contour>
			<point x="569" y="475" type="qcurve"/>
			<point x="569" y="560"/>
			<point x="432" y="688"/>
			<point x="322" y="688" type="qcurve"/>
			<point x="222" y="688"/>
			<point x="70" y="570"/>
			<point x="70" y="477" type="qcurve" smooth="yes"/>
			<point x="70" y="384"/>
			<point x="205" y="267"/>
			<point x="322" y="267" type="qcurve" smooth="yes"/>
			<point x="431" y="267"/>
			<point x="569" y="393"/>
		</contour>
	</outline>
</glyph>
<glyph name="less" format="2">
	<advance width="598"/>
	<unicode hex="003C"/>
	<note>
		less
	</note>
	<outline>
		<contour>
			<point x="66" y="248" type="line"/>
			<point x="67" y="259" type="line"/>
			<point x="542" y="58" type="line"/>
			<point x="534" y="36" type="line"/>
			<point x="48" y="240" type="line"/>
			<point x="48" y="266" type="line"/>
			<point x="534" y="470" type="line"/>
			<point x="542" y="448" type="line"/>
		</contour>
	</outline>
</glyph>
<glyph name="equal" format="2">
	<advance width="706"/>
	<unicode hex="003D"/>
	<note>
		equal
	</note>
	<outline>
		<contour>
			<point x="641" y="355" type="line"/>
			<point x="65" y="355" type="line"/>
			<point x="65" y="377" type="line"/>
			<point x="641" y="377" type="line"/>
		</contour>
		<contour>
			<point x="641" y="185" type="line"/>
			<point x="65" y="185" type="line"/>
			<point x="65" y="207" type="line"/>
			<point x="641" y="207" type="line"/>
		</contour>
	</outline>
</glyph>
<glyph name="question" format="2">
	<advance width="578"/>
	<unicode hex="003F"/>
	<note>
		question
	</note>
	<outline>
		<contour>
			<point x="256" y="146" type="line"/>
			<point x="254" y="316" type="line"/>
			<point x="374" y="339"/>
			<point x="515" y="447"/>
			<point x="515" y="522" type="qcurve" smooth="yes"/>
			<point x="515" y="595"/>
			<point x="391" y="688"/>
			<point x="294" y="688" type="qcurve" smooth="yes"/>
			<point x="213" y="688"/>
			<point x="67" y="627"/>
			<point x="12" y="542" type="qcurve"/>
			<point x="0" y="559" type="line"/>
			<point x="39" y="629"/>
			<point x="189" y="710"/>
			<point x="291" y="710" type="qcurve" smooth="yes"/>
			<point x="405" y="710"/>
			<point x="538" y="602"/>
			<point x="538" y="522" type="qcurve" smooth="yes"/>
			<point x="538" y="431"/>
			<point x="370" y="313"/>
			<point x="260" y="298" type="qcurve"/>
			<point x="278" y="306" type="line"/>
			<point x="276" y="146" type="line"/>
		</contour>
		<contour>
			<point x="299" y="21" type="qcurve" smooth="yes"/>
			<point x="299" y="8"/>
			<point x="283" y="-10"/>
			<point x="269" y="-10" type="qcurve" smooth="yes"/>
			<point x="255" y="-10"/>
			<point x="239" y="6"/>
			<point x="239" y="21" type="qcurve" smooth="yes"/>
			<point x="239" y="35"/>
			<point x="255" y="52"/>
			<point x="269" y="52" type="qcurve" smooth="yes"/>
			<point x="283" y="52"/>
			<point x="299" y="36"/>
		</contour>
	</outline>
</glyph>
<glyph name="A" format="2">
	<advance width="760"/>
	<unicode hex="0041"/>
	<anchor x="729" y="0" name="ogonek"/>
	<anchor x="379" y="0" name="bottom"/>
	<anchor x="379" y="700" name="top"/>
	<note>
		A
	</note>
	<outline>
		<contour>
			<point x="377" y="684" type="qcurve"/>
			<point x="380" y="684" type="line"/>
			<point x="369" y="662"/>
			<point x="352" y="626"/>
			<point x="320" y="563" type="qcurve"/>
			<point x="45" y="0" type="line"/>
			<point x="20" y="0" type="line"/>
			<point x="364" y="700" type="line"/>
			<point x="395" y="700" type="line"/>
			<point x="740" y="0" type="line"/>
			<point x="714" y="0" type="line"/>
			<point x="438" y="564" type="line" smooth="yes"/>
			<point x="408" y="625"/>
			<point x="389" y="662"/>
		</contour>
		<contour>
			<point x="374" y="221" type="line"/>
			<point x="143" y="221" type="line"/>
			<point x="154" y="243" type="line"/>
			<point x="374" y="243" type="line"/>
		</contour>
		<contour>
			<point x="619" y="221" type="line"/>
			<point x="374" y="221" type="line"/>
			<point x="374" y="243" type="line"/>
			<point x="609" y="243" type="line"/>
		</contour>
	</outline>
</glyph>
<glyph name="D" format="2">
	<advance width="882"/>
	<unicode hex="0044"/>
	<anchor x="247" y="350" name="center"/>
	<anchor x="366" y="0" name="bottom"/>
	<anchor x="366" y="700" name="top"/>
	<note>
		D
	</note>
	<outline>
		<contour>
			<point x="110" y="700" type="line"/>
			<point x="437" y="700" type="line" smooth="yes"/>
			<point x="607" y="700"/>
			<point x="827" y="503"/>
			<point x="827" y="350" type="qcurve" smooth="yes"/>
			<point x="827" y="197"/>
			<point x="607" y="0"/>
			<point x="437" y="0" type="qcurve"/>
			<point x="110" y="0" type="line"/>
		</contour>
		<contour>
			<point x="122" y="22" type="line"/>
			<point x="432" y="22" type="line" smooth="yes"/>
			<point x="594" y="22"/>
			<point x="804" y="207"/>
			<point x="804" y="350" type="qcurve" smooth="yes"/>
			<point x="804" y="493"/>
			<point x="594" y="678"/>
			<point x="432" y="678" type="qcurve"/>
			<point x="121" y="678" type="line"/>
			<point x="132" y="689" type="line"/>
			<point x="132" y="13" type="line"/>
		</contour>
	</outline>
</glyph>
<glyph name="G" format="2">
	<advance width="926"/>
	<unicode hex="0047"/>
	<anchor x="480" y="700" name="top"/>
	<anchor x="480" y="0" name="bottom"/>
	<note>
		G
	</note>
	<outline>
		<contour>
			<point x="55" y="349" type="qcurve"/>
			<point x="55" y="503"/>
			<point x="291" y="710"/>
			<point x="479" y="710" type="qcurve"/>
			<point x="574" y="710"/>
			<point x="731" y="648"/>
			<point x="786" y="596" type="qcurve"/>
			<point x="778" y="574" type="line"/>
			<point x="726" y="626"/>
			<point x="572" y="688"/>
			<point x="479" y="688" type="qcurve"/>
			<point x="303" y="688"/>
			<point x="78" y="494"/>
			<point x="78" y="349" type="qcurve"/>
			<point x="78" y="204"/>
			<point x="303" y="12"/>
			<point x="479" y="12" type="qcurve"/>
			<point x="643" y="12"/>
			<point x="859" y="206"/>
			<point x="859" y="329" type="qcurve"/>
			<point x="859" y="337" type="line"/>
			<point x="870" y="326" type="line"/>
			<point x="479" y="326" type="line"/>
			<point x="479" y="348" type="line"/>
			<point x="881" y="348" type="line"/>
			<point x="881" y="345"/>
			<point x="881" y="340"/>
			<point x="881" y="337" type="qcurve" smooth="yes"/>
			<point x="881" y="196"/>
			<point x="655" y="-10"/>
			<point x="479" y="-10" type="qcurve"/>
			<point x="291" y="-10"/>
			<point x="55" y="195"/>
		</contour>
	</outline>
</glyph>
<glyph name="H" format="2">
	<advance width="872"/>
	<unicode hex="0048"/>
	<anchor x="444" y="0" name="bottom"/>
	<anchor x="444" y="700" name="top"/>
	<anchor x="20" y="700" name="topleft"/>
	<anchor x="444" y="350" name="center"/>
	<note>
		H
	</note>
	<outline>
		<contour>
			<point x="110" y="700" type="line"/>
			<point x="132" y="700" type="line"/>
			<point x="132" y="0" type="line"/>
			<point x="110" y="0" type="line"/>
		</contour>
		<contour>
			<point x="739" y="700" type="line"/>
			<point x="761" y="700" type="line"/>
			<point x="761" y="0" type="line"/>
			<point x="739" y="0" type="line"/>
		</contour>
		<contour>
			<point x="121" y="334" type="line"/>
			<point x="122" y="356" type="line"/>
			<point x="750" y="356" type="line"/>
			<point x="750" y="334" type="line"/>
		</contour>
	</outline>
</glyph>
<glyph name="I" format="2">
	<advance width="526"/>
	<unicode hex="0049"/>
	<anchor x="469" y="0" name="ogonek"/>
	<anchor x="263" y="700" name="top"/>
	<anchor x="20" y="700" name="topleft"/>
	<anchor x="263" y="0" name="bottom"/>
	<note>
		I
	</note>
	<outline>
		<contour>
			<point x="274" y="700" type="qcurve"/>
			<point x="274" y="0" type="line"/>
			<point x="252" y="0" type="line"/>
			<point x="252" y="700" type="line"/>
			<point x="289" y="700"/>
			<point x="237" y="700"/>
		</contour>
		<contour>
			<point x="476" y="700" type="line"/>
			<point x="476" y="678" type="line"/>
			<point x="50" y="678" type="line"/>
			<point x="50" y="700" type="line"/>
		</contour>
		<contour>
			<point x="476" y="22" type="line"/>
			<point x="476" y="0" type="line"/>
			<point x="50" y="0" type="line"/>
			<point x="50" y="22" type="line"/>
		</contour>
	</outline>
</glyph>
<glyph name="L" format="2">
	<advance width="633"/>
	<unicode hex="004C"/>
	<anchor x="365" y="0" name="bottom"/>
	<anchor x="172" y="700" name="top"/>
	<anchor x="632" y="700" name="topright"/>
	<anchor x="456" y="350" name="center"/>
	<note>
		L
	</note>
	<outline>
		<contour>
			<point x="120" y="22" type="line"/>
			<point x="623" y="22" type="line"/>
			<point x="623" y="0" type="line"/>
			<point x="110" y="0" type="line"/>
			<point x="110" y="700" type="line"/>
			<point x="132" y="700" type="line"/>
			<point x="132" y="9" type="line"/>
		</contour>
	</outline>
</glyph>
<glyph name="O" format="2">
	<advance width="958"/>
	<unicode hex="004F"/>
	<anchor x="479" y="0" name="bottom"/>
	<anchor x="578" y="0" name="ogonek"/>
	<anchor x="479" y="700" name="top"/>
	<anchor x="728" y="700" name="topright"/>
	<anchor x="20" y="700" name="topleft"/>
	<anchor x="479" y="350" name="center"/>
	<note>
		O
	</note>
	<outline>
		<contour>
			<point x="479" y="710" type="qcurve"/>
			<point x="666" y="710"/>
			<point x="903" y="505"/>
			<point x="903" y="349" type="qcurve"/>
			<point x="903" y="194"/>
			<point x="666" y="-10"/>
			<point x="479" y="-10" type="qcurve"/>
			<point x="291" y="-10"/>
			<point x="55" y="195"/>
			<point x="55" y="349" type="qcurve"/>
			<point x="55" y="503"/>
			<point x="291" y="710"/>
		</contour>
		<contour>
			<point x="479" y="12" type="qcurve" smooth="yes"/>
			<point x="655" y="12"/>
			<point x="880" y="204"/>
			<point x="880" y="349" type="qcurve"/>
			<point x="880" y="494"/>
			<point x="655" y="688"/>
			<point x="479" y="688" type="qcurve" smooth="yes"/>
			<point x="303" y="688"/>
			<point x="78" y="494"/>
			<point x="78" y="349" type="qcurve"/>
			<point x="78" y="204"/>
			<point x="303" y="12"/>
		</contour>
	</outline>
</glyph>
<glyph name="T" format="2">
	<advance width="628"/>
	<unicode hex="0054"/>
	<anchor x="314" y="350" name="center"/>
	<anchor x="344" y="0" name="bottom"/>
	<anchor x="314" y="700" name="top"/>
	<note>
		T
	</note>
	<outline>
		<contour>
			<point x="325" y="0" type="line"/>
			<point x="303" y="0" type="line"/>
			<point x="303" y="688" type="line"/>
			<point x="325" y="688" type="line"/>
		</contour>
		<contour>
			<point x="608" y="678" type="line"/>
			<point x="20" y="678" type="line"/>
			<point x="20" y="700" type="line"/>
			<point x="608" y="700" type="line"/>
		</contour>
	</outline>
</glyph>
<glyph name="V" format="2">
	<advance width="760"/>
	<unicode hex="0056"/>
	<anchor x="379" y="700" name="top"/>
	<anchor x="379" y="0" name="bottom"/>
	<note>
		V
	</note>
	<outline>
		<contour>
			<point x="364" y="0" type="line"/>
			<point x="20" y="700" type="line"/>
			<point x="44" y="701" type="line"/>
			<point x="320" y="138" type="line"/>
			<point x="352" y="75"/>
			<point x="369" y="39"/>
			<point x="380" y="17" type="qcurve"/>
			<point x="379" y="17" type="line"/>
			<point x="390" y="39"/>
			<point x="409" y="76"/>
			<point x="439" y="137" type="qcurve"/>
			<point x="716" y="701" type="line"/>
			<point x="740" y="700" type="line"/>
			<point x="395" y="0" type="line"/>
		</contour>
	</outline>
</glyph>
<glyph name="W" format="2">
	<advance width="993"/>
	<unicode hex="0057"/>
	<anchor x="490" y="700" name="top"/>
	<anchor x="492" y="0" name="bottom"/>
	<note>
		W
	</note>
	<outline>
		<contour>
			<point x="254" y="0" type="line"/>
			<point x="20" y="700" type="line"/>
			<point x="44" y="700" type="line"/>
			<point x="203" y="220" type="line" smooth="yes"/>
			<point x="231" y="134"/>
			<point x="243" y="102"/>
			<point x="273" y="10" type="qcurve"/>
			<point x="268" y="10" type="line"/>
			<point x="303" y="97"/>
			<point x="337" y="181"/>
			<point x="357" y="228" type="qcurve"/>
			<point x="483" y="541" type="line"/>
			<point x="498" y="541" type="line"/>
			<point x="621" y="230" type="line" smooth="yes"/>
			<point x="642" y="176"/>
			<point x="694" y="39"/>
			<point x="706" y="10" type="qcurve"/>
			<point x="692" y="10" type="line"/>
			<point x="703" y="40"/>
			<point x="735" y="130"/>
			<point x="770" y="224" type="qcurve"/>
			<point x="949" y="700" type="line"/>
			<point x="973" y="700" type="line"/>
			<point x="711" y="0" type="line"/>
			<point x="687" y="0" type="line"/>
			<point x="484" y="517" type="line"/>
			<point x="497" y="517" type="line"/>
			<point x="287" y="0" type="line"/>
		</contour>
	</outline>
</glyph>
<glyph name="Y" format="2">
	<advance width="752"/>
	<unicode hex="0059"/>
	<anchor x="380" y="700" name="top"/>
	<anchor x="380" y="0" name="bottom"/>
	<anchor x="8" y="700" name="topleft"/>
	<note>
		Y
	</note>
	<outline>
		<contour>
			<point x="704" y="700" type="line"/>
			<point x="732" y="700" type="line"/>
			<point x="382" y="255" type="line"/>
			<point x="391" y="276" type="line"/>
			<point x="391" y="0" type="line"/>
			<point x="369" y="0" type="line"/>
			<point x="369" y="276" type="line"/>
			<point x="377" y="255" type="line"/>
			<point x="20" y="700" type="line"/>
			<point x="48" y="700" type="line"/>
			<point x="383" y="281" type="line"/>
			<point x="376" y="281" type="line"/>
		</contour>
	</outline>
</glyph>
<glyph name="a" format="2">
	<advance width="744"/>
	<unicode hex="0061"/>
	<anchor x="677" y="10" name="ogonek"/>
	<anchor x="335" y="0" name="bottom"/>
	<anchor x="363" y="525" name="top"/>
	<note>
		a
	</note>
	<outline>
		<contour>
			<point x="654" y="525" type="line"/>
			<point x="674" y="525" type="line"/>
			<point x="674" y="0" type="line"/>
			<point x="652" y="0" type="line"/>
			<point x="652" y="192" type="line"/>
			<point x="666" y="210" type="line"/>
			<point x="656" y="116"/>
			<point x="485" y="-10"/>
			<point x="370" y="-10" type="qcurve"/>
			<point x="212" y="-10"/>
			<point x="40" y="137"/>
			<point x="40" y="257" type="qcurve"/>
			<point x="40" y="375"/>
			<point x="223" y="536"/>
			<point x="363" y="536" type="qcurve"/>
			<point x="492" y="536"/>
			<point x="659" y="394"/>
			<point x="662" y="321" type="qcurve"/>
			<point x="652" y="320" type="line"/>
		</contour>
		<contour>
			<point x="62" y="257" type="qcurve"/>
			<point x="62" y="149"/>
			<point x="222" y="12"/>
			<point x="366" y="12" type="qcurve"/>
			<point x="490" y="12"/>
			<point x="653" y="151"/>
			<point x="653" y="259" type="qcurve"/>
			<point x="653" y="365"/>
			<point x="490" y="514"/>
			<point x="364" y="514" type="qcurve"/>
			<point x="231" y="514"/>
			<point x="62" y="364"/>
		</contour>
	</outline>
</glyph>
<glyph name="b" format="2">
	<advance width="727"/>
	<unicode hex="0062"/>
	<anchor x="386" y="527" name="top"/>
	<anchor x="351" y="0" name="bottom"/>
	<note>
		b
	</note>
	<outline>
		<contour>
			<point x="385" y="536" type="qcurve"/>
			<point x="518" y="536"/>
			<point x="687" y="381"/>
			<point x="687" y="263" type="qcurve"/>
			<point x="687" y="146"/>
			<point x="513" y="-10"/>
			<point x="385" y="-10" type="qcurve"/>
			<point x="279" y="-10"/>
			<point x="122" y="81"/>
			<point x="82" y="184" type="qcurve"/>
			<point x="94" y="183" type="line"/>
			<point x="92" y="0" type="line"/>
			<point x="72" y="0" type="line"/>
			<point x="72" y="740" type="line"/>
			<point x="94" y="740" type="line"/>
			<point x="94" y="342" type="line"/>
			<point x="82" y="342" type="line"/>
			<point x="127" y="443"/>
			<point x="279" y="536"/>
		</contour>
		<contour>
			<point x="665" y="263" type="qcurve"/>
			<point x="666" y="371"/>
			<point x="505" y="514"/>
			<point x="385" y="514" type="qcurve"/>
			<point x="252" y="514"/>
			<point x="95" y="369"/>
			<point x="94" y="265" type="qcurve"/>
			<point x="96" y="151"/>
			<point x="256" y="12"/>
			<point x="385" y="12" type="qcurve"/>
			<point x="503" y="12"/>
			<point x="664" y="151"/>
		</contour>
	</outline>
</glyph>
<glyph name="d" format="2">
	<advance width="727"/>
	<unicode hex="0064"/>
	<anchor x="343" y="0" name="bottom"/>
	<anchor x="393" y="740" name="top"/>
	<anchor x="727" y="701" name="topright"/>
	<anchor x="622" y="616" name="center"/>
	<note>
		d
	</note>
	<outline>
		<contour>
			<point x="633" y="740" type="line"/>
			<point x="655" y="740" type="line"/>
			<point x="655" y="0" type="line"/>
			<point x="635" y="0" type="line"/>
			<point x="633" y="183" type="line"/>
			<point x="645" y="184" type="line"/>
			<point x="605" y="81"/>
			<point x="448" y="-10"/>
			<point x="342" y="-10" type="qcurve"/>
			<point x="214" y="-10"/>
			<point x="40" y="146"/>
			<point x="40" y="263" type="qcurve"/>
			<point x="40" y="381"/>
			<point x="209" y="536"/>
			<point x="342" y="536" type="qcurve"/>
			<point x="448" y="536"/>
			<point x="600" y="443"/>
			<point x="645" y="342" type="qcurve"/>
			<point x="633" y="342" type="line"/>
		</contour>
		<contour>
			<point x="62" y="263" type="qcurve"/>
			<point x="63" y="151"/>
			<point x="224" y="12"/>
			<point x="342" y="12" type="qcurve"/>
			<point x="471" y="12"/>
			<point x="631" y="151"/>
			<point x="633" y="265" type="qcurve"/>
			<point x="632" y="369"/>
			<point x="475" y="514"/>
			<point x="342" y="514" type="qcurve"/>
			<point x="222" y="514"/>
			<point x="61" y="371"/>
		</contour>
	</outline>
</glyph>
<glyph name="f" format="2">
	<advance width="480"/>
	<unicode hex="0066"/>
	<anchor x="444" y="741" name="top"/>
	<anchor x="365" y="0" name="bottom"/>
	<note>
		f
	</note>
	<outline>
		<contour>
			<point x="454" y="525" type="line"/>
			<point x="454" y="503" type="line"/>
			<point x="30" y="503" type="line"/>
			<point x="30" y="525" type="line"/>
		</contour>
		<contour>
			<point x="480" y="708" type="qcurve"/>
			<point x="469" y="689" type="line"/>
			<point x="447" y="708"/>
			<point x="381" y="728"/>
			<point x="343" y="728" type="qcurve" smooth="yes"/>
			<point x="269" y="728"/>
			<point x="202" y="641"/>
			<point x="202" y="565" type="qcurve"/>
			<point x="202" y="0" type="line"/>
			<point x="195" y="0"/>
			<point x="187" y="0"/>
			<point x="180" y="0" type="qcurve"/>
			<point x="180" y="566" type="line" smooth="yes"/>
			<point x="180" y="657"/>
			<point x="267" y="750"/>
			<point x="345" y="750" type="qcurve" smooth="yes"/>
			<point x="386" y="750"/>
			<point x="456" y="728"/>
		</contour>
	</outline>
</glyph>
<glyph name="g" format="2">
	<advance width="726"/>
	<unicode hex="0067"/>
	<anchor x="344" y="525" name="top"/>
	<anchor x="344" y="-230" name="bottom"/>
	<note>
		g
	</note>
	<outline>
		<contour>
			<point x="146" y="-165" type="qcurve"/>
			<point x="155" y="-143" type="line"/>
			<point x="195" y="-177"/>
			<point x="304" y="-218"/>
			<point x="377" y="-218" type="qcurve"/>
			<point x="475" y="-218"/>
			<point x="633" y="-91"/>
			<point x="633" y="51" type="qcurve"/>
			<point x="633" y="183" type="line"/>
			<point x="645" y="183" type="line"/>
			<point x="600" y="82"/>
			<point x="448" y="-5"/>
			<point x="342" y="-5" type="qcurve"/>
			<point x="209" y="-5"/>
			<point x="40" y="144"/>
			<point x="40" y="262" type="qcurve"/>
			<point x="40" y="379"/>
			<point x="214" y="535"/>
			<point x="342" y="535" type="qcurve"/>
			<point x="448" y="535"/>
			<point x="605" y="444"/>
			<point x="645" y="341" type="qcurve"/>
			<point x="633" y="342" type="line"/>
			<point x="635" y="525" type="line"/>
			<point x="655" y="525" type="line"/>
			<point x="655" y="61" type="line"/>
			<point x="655" y="-105"/>
			<point x="482" y="-240"/>
			<point x="379" y="-240" type="qcurve"/>
			<point x="304" y="-240"/>
			<point x="183" y="-196"/>
		</contour>
		<contour>
			<point x="633" y="260" type="qcurve"/>
			<point x="631" y="374"/>
			<point x="471" y="513"/>
			<point x="342" y="513" type="qcurve"/>
			<point x="224" y="513"/>
			<point x="63" y="374"/>
			<point x="62" y="262" type="qcurve"/>
			<point x="61" y="154"/>
			<point x="222" y="17"/>
			<point x="342" y="17" type="qcurve"/>
			<point x="475" y="17"/>
			<point x="632" y="156"/>
		</contour>
	</outline>
</glyph>
<glyph name="p" format="2">
	<advance width="728"/>
	<unicode hex="0070"/>
	<anchor x="386" y="525" name="top"/>
	<anchor x="386" y="0" name="bottom"/>
	<note>
		p
	</note>
	<outline>
		<contour>
			<point x="386" y="536" type="qcurve"/>
			<point x="514" y="536"/>
			<point x="688" y="379"/>
			<point x="688" y="262" type="qcurve"/>
			<point x="688" y="144"/>
			<point x="519" y="-5"/>
			<point x="386" y="-5" type="qcurve"/>
			<point x="280" y="-5"/>
			<point x="128" y="82"/>
			<point x="83" y="183" type="qcurve"/>
			<point x="95" y="183" type="line"/>
			<point x="95" y="-230" type="line"/>
			<point x="73" y="-230" type="line"/>
			<point x="73" y="525" type="line"/>
			<point x="93" y="525" type="line"/>
			<point x="95" y="342" type="line"/>
			<point x="83" y="341" type="line"/>
			<point x="123" y="444"/>
			<point x="280" y="536"/>
		</contour>
		<contour>
			<point x="666" y="262" type="qcurve"/>
			<point x="665" y="374"/>
			<point x="504" y="514"/>
			<point x="386" y="514" type="qcurve"/>
			<point x="257" y="514"/>
			<point x="97" y="374"/>
			<point x="95" y="260" type="qcurve"/>
			<point x="96" y="156"/>
			<point x="253" y="17"/>
			<point x="386" y="17" type="qcurve"/>
			<point x="506" y="17"/>
			<point x="667" y="154"/>
		</contour>
	</outline>
</glyph>
<glyph name="r" format="2">
	<advance width="431"/>
	<unicode hex="0072"/>
	<anchor x="243" y="525" name="top"/>
	<anchor x="82" y="0" name="bottom"/>
	<note>
		r
	</note>
	<outline>
		<contour>
			<point x="436" y="508" type="qcurve"/>
			<point x="427" y="488" type="line"/>
			<point x="402" y="502"/>
			<point x="333" y="514"/>
			<point x="307" y="514" type="qcurve"/>
			<point x="201" y="514"/>
			<point x="92" y="385"/>
			<point x="92" y="326" type="qcurve"/>
			<point x="92" y="0" type="line"/>
			<point x="70" y="0" type="line"/>
			<point x="70" y="525" type="line"/>
			<point x="90" y="525" type="line"/>
			<point x="91" y="372" type="line"/>
			<point x="80" y="365" type="line"/>
			<point x="102" y="444"/>
			<point x="217" y="536"/>
			<point x="306" y="536" type="qcurve"/>
			<point x="343" y="536"/>
			<point x="412" y="522"/>
		</contour>
	</outline>
</glyph>
<glyph name="t" format="2">
	<advance width="490"/>
	<unicode hex="0074"/>
	<anchor x="248" y="0" name="bottom"/>
	<anchor x="244" y="687" name="top"/>
	<anchor x="490" y="700" name="topright"/>
	<anchor x="244" y="233" name="center"/>
	<note>
		t
	</note>
	<outline>
		<contour>
			<point x="255" y="689" type="line"/>
			<point x="255" y="0" type="line"/>
			<point x="233" y="0" type="line"/>
			<point x="233" y="689" type="line"/>
		</contour>
		<contour>
			<point x="475" y="525" type="line"/>
			<point x="475" y="503" type="line"/>
			<point x="20" y="503" type="line"/>
			<point x="20" y="525" type="line"/>
		</contour>
	</outline>
</glyph>
<glyph name="u" format="2">
	<advance width="661"/>
	<unicode hex="0075"/>
	<anchor x="612" y="11" name="ogonek"/>
	<anchor x="321" y="525" name="top"/>
	<anchor x="673" y="465" name="topright"/>
	<anchor x="321" y="0" name="bottom"/>
	<note>
		u
	</note>
	<outline>
		<contour>
			<point x="318" y="12" type="qcurve"/>
			<point x="426" y="12"/>
			<point x="566" y="144"/>
			<point x="567" y="182" type="qcurve"/>
			<point x="567" y="525" type="line"/>
			<point x="589" y="525" type="line"/>
			<point x="589" y="0" type="line"/>
			<point x="569" y="0" type="line"/>
			<point x="567" y="161" type="line"/>
			<point x="581" y="165" type="line"/>
			<point x="564" y="105"/>
			<point x="422" y="-10"/>
			<point x="323" y="-10" type="qcurve"/>
			<point x="203" y="-10"/>
			<point x="73" y="117"/>
			<point x="73" y="207" type="qcurve"/>
			<point x="73" y="525" type="line"/>
			<point x="95" y="525" type="line"/>
			<point x="95" y="214" type="line"/>
			<point x="95" y="122"/>
			<point x="221" y="12"/>
		</contour>
	</outline>
</glyph>
<glyph name="w" format="2">
	<advance width="848"/>
	<unicode hex="0077"/>
	<anchor x="419" y="525" name="top"/>
	<anchor x="419" y="2" name="bottom"/>
	<note>
		w
	</note>
	<outline>
		<contour>
			<point x="809" y="525" type="line"/>
			<point x="833" y="525" type="line"/>
			<point x="627" y="0" type="line"/>
			<point x="613" y="0" type="line"/>
			<point x="414" y="448" type="line"/>
			<point x="423" y="448" type="line"/>
			<point x="228" y="0" type="line"/>
			<point x="214" y="0" type="line"/>
			<point x="15" y="525" type="line"/>
			<point x="39" y="525" type="line"/>
			<point x="225" y="34" type="line"/>
			<point x="219" y="34" type="line"/>
			<point x="409" y="470" type="line"/>
			<point x="428" y="470" type="line"/>
			<point x="621" y="34" type="line"/>
			<point x="617" y="34" type="line"/>
		</contour>
	</outline>
</glyph>
<glyph name="x" format="2">
	<advance width="635"/>
	<unicode hex="0078"/>
	<anchor x="318" y="525" name="top"/>
	<anchor x="318" y="0" name="bottom"/>
	<note>
		x
	</note>
	<outline>
		<contour>
			<point x="42" y="525" type="line"/>
			<point x="76" y="525" type="line"/>
			<point x="319" y="283" type="line"/>
			<point x="326" y="275" type="line"/>
			<point x="625" y="0" type="line"/>
			<point x="591" y="0" type="line"/>
			<point x="310" y="259" type="line"/>
			<point x="302" y="268" type="line"/>
		</contour>
		<contour>
			<point x="44" y="0" type="line"/>
			<point x="10" y="0" type="line"/>
			<point x="307" y="276" type="line"/>
			<point x="324" y="259" type="line"/>
		</contour>
		<contour>
			<point x="587" y="525" type="line"/>
			<point x="622" y="525" type="line"/>
			<point x="324" y="259" type="line"/>
			<point x="307" y="276" type="line"/>
		</contour>
	</outline>
</glyph>
<glyph name="y" format="2">
	<advance width="653"/>
	<unicode hex="0079"/>
	<anchor x="336" y="525" name="top"/>
	<anchor x="528" y="0" name="bottom"/>
	<note>
		y
	</note>
	<outline>
		<contour>
			<point x="341" y="14" type="qcurve"/>
			<point x="331" y="-8" type="line"/>
			<point x="15" y="525" type="line"/>
			<point x="41" y="525" type="line"/>
			<point x="311" y="68" type="line" smooth="yes"/>
			<point x="322" y="50"/>
			<point x="337" y="23"/>
		</contour>
		<contour>
			<point x="218" y="-230" type="line"/>
			<point x="193" y="-230" type="line"/>
			<point x="328" y="12" type="line"/>
			<point x="332" y="19" type="line" smooth="yes"/>
			<point x="339" y="32"/>
			<point x="351" y="57"/>
			<point x="357" y="67" type="qcurve" smooth="yes"/>
			<point x="612" y="525" type="line"/>
			<point x="638" y="525" type="line"/>
			<point x="347" y="1" type="line"/>
		</contour>
	</outline>
</glyph>
<glyph name="braceleft" format="2">
	<advance width="470"/>
	<unicode hex="007B"/>
	<note>
		braceleft
	</note>
	<outline>
		<contour>
			<point x="416" y="-171" type="qcurve"/>
			<point x="411" y="-192" type="line"/>
			<point x="297" y="-176"/>
			<point x="200" y="-88"/>
			<point x="200" y="-2" type="qcurve"/>
			<point x="202" y="82" type="line"/>
			<point x="202" y="160"/>
			<point x="132" y="235"/>
			<point x="70" y="235" type="qcurve"/>
			<point x="63" y="235" type="line"/>
			<point x="63" y="259" type="line"/>
			<point x="70" y="259" type="line"/>
			<point x="131" y="259"/>
			<point x="203" y="344"/>
			<point x="203" y="412" type="qcurve"/>
			<point x="201" y="496" type="line"/>
			<point x="201" y="582"/>
			<point x="298" y="670"/>
			<point x="412" y="686" type="qcurve"/>
			<point x="417" y="665" type="line"/>
			<point x="295" y="644"/>
			<point x="224" y="564"/>
			<point x="224" y="478" type="qcurve"/>
			<point x="227" y="411" type="line"/>
			<point x="226" y="348"/>
			<point x="174" y="259"/>
			<point x="112" y="247" type="qcurve"/>
			<point x="112" y="250" type="line"/>
			<point x="174" y="235"/>
			<point x="226" y="147"/>
			<point x="226" y="83" type="qcurve"/>
			<point x="223" y="16" type="line"/>
			<point x="223" y="-70"/>
			<point x="294" y="-150"/>
		</contour>
	</outline>
</glyph>
<glyph name="sterling" format="2">
	<advance width="750"/>
	<unicode hex="00A3"/>
	<note>
		sterling
	</note>
	<outline>
		<contour>
			<point x="577" y="318" type="line"/>
			<point x="59" y="318" type="line"/>
			<point x="59" y="340" type="line"/>
			<point x="577" y="340" type="line"/>
		</contour>
		<contour>
			<point x="199" y="89" type="qcurve"/>
			<point x="250" y="89"/>
			<point x="355" y="63"/>
			<point x="410" y="48" type="qcurve" smooth="yes"/>
			<point x="455" y="36"/>
			<point x="533" y="17"/>
			<point x="567" y="17" type="qcurve"/>
			<point x="605" y="17"/>
			<point x="670" y="50"/>
			<point x="688" y="69" type="qcurve"/>
			<point x="702" y="51" type="line"/>
			<point x="672" y="24"/>
			<point x="603" y="-5"/>
			<point x="567" y="-5" type="qcurve"/>
			<point x="532" y="-5"/>
			<point x="440" y="15"/>
			<point x="389" y="28" type="qcurve" smooth="yes"/>
			<point x="332" y="42"/>
			<point x="233" y="67"/>
			<point x="199" y="67" type="qcurve"/>
			<point x="162" y="67"/>
			<point x="93" y="29"/>
			<point x="73" y="13" type="qcurve"/>
			<point x="62" y="32" type="line"/>
			<point x="91" y="55"/>
			<point x="157" y="89"/>
		</contour>
		<contour>
			<point x="230" y="202" type="qcurve"/>
			<point x="230" y="154"/>
			<point x="189" y="83"/>
			<point x="152" y="69" type="qcurve"/>
			<point x="126" y="73" type="line"/>
			<point x="162" y="89"/>
			<point x="207" y="151"/>
			<point x="207" y="201" type="qcurve"/>
			<point x="207" y="240"/>
			<point x="185" y="315"/>
			<point x="173" y="351" type="qcurve" smooth="yes"/>
			<point x="160" y="392"/>
			<point x="144" y="465"/>
			<point x="144" y="502" type="qcurve"/>
			<point x="144" y="585"/>
			<point x="285" y="695"/>
			<point x="410" y="695" type="qcurve"/>
			<point x="500" y="695"/>
			<point x="615" y="635"/>
			<point x="649" y="591" type="qcurve"/>
			<point x="636" y="574" type="line"/>
			<point x="584" y="630"/>
			<point x="485" y="672"/>
			<point x="410" y="672" type="qcurve"/>
			<point x="292" y="672"/>
			<point x="167" y="573"/>
			<point x="167" y="501" type="qcurve"/>
			<point x="167" y="468"/>
			<point x="186" y="394"/>
			<point x="199" y="354" type="qcurve" smooth="yes"/>
			<point x="214" y="311"/>
			<point x="230" y="234"/>
		</contour>
	</outline>
</glyph>
<glyph name="currency" format="2">
	<advance width="563"/>
	<unicode hex="00A4"/>
	<note>
		currency
	</note>
	<outline>
		<contour>
			<point x="467" y="302" type="qcurve"/>
			<point x="467" y="222"/>
			<point x="357" y="112"/>
			<point x="279" y="112" type="qcurve"/>
			<point x="201" y="112"/>
			<point x="91" y="222"/>
			<point x="91" y="302" type="qcurve"/>
			<point x="91" y="381"/>
			<point x="201" y="492"/>
			<point x="279" y="492" type="qcurve"/>
			<point x="357" y="492"/>
			<point x="467" y="381"/>
		</contour>
		<contour>
			<point x="113" y="302" type="qcurve"/>
			<point x="113" y="231"/>
			<point x="206" y="134"/>
			<point x="279" y="134" type="qcurve"/>
			<point x="353" y="134"/>
			<point x="445" y="231"/>
			<point x="445" y="302" type="qcurve"/>
			<point x="445" y="372"/>
			<point x="353" y="470"/>
			<point x="279" y="470" type="qcurve"/>
			<point x="206" y="470"/>
			<point x="113" y="372"/>
		</contour>
		<contour>
			<point x="151" y="413" type="line"/>
			<point x="80" y="479" type="line"/>
			<point x="95" y="496" type="line"/>
			<point x="167" y="428" type="line"/>
		</contour>
		<contour>
			<point x="463" y="110" type="line"/>
			<point x="397" y="172" type="line"/>
			<point x="413" y="187" type="line"/>
			<point x="478" y="127" type="line"/>
		</contour>
		<contour>
			<point x="391" y="428" type="line"/>
			<point x="463" y="496" type="line"/>
			<point x="478" y="479" type="line"/>
			<point x="407" y="413" type="line"/>
		</contour>
		<contour>
			<point x="80" y="127" type="line"/>
			<point x="144" y="186" type="line"/>
			<point x="160" y="171" type="line"/>
			<point x="95" y="110" type="line"/>
		</contour>
	</outline>
</glyph>
<glyph name="copyright" format="2">
	<advance width="806"/>
	<unicode hex="00A9"/>
	<note>
		copyright
	</note>
	<outline>
		<contour>
			<point x="770" y="350" type="qcurve" smooth="yes"/>
			<point x="770" y="195"/>
			<point x="556" y="-18"/>
			<point x="402" y="-18" type="qcurve" smooth="yes"/>
			<point x="248" y="-18"/>
			<point x="35" y="195"/>
			<point x="35" y="350" type="qcurve" smooth="yes"/>
			<point x="35" y="504"/>
			<point x="248" y="717"/>
			<point x="402" y="717" type="qcurve" smooth="yes"/>
			<point x="556" y="717"/>
			<point x="770" y="504"/>
		</contour>
		<contour>
			<point x="58" y="350" type="qcurve" smooth="yes"/>
			<point x="58" y="204"/>
			<point x="259" y="4"/>
			<point x="403" y="4" type="qcurve" smooth="yes"/>
			<point x="546" y="4"/>
			<point x="747" y="204"/>
			<point x="747" y="350" type="qcurve" smooth="yes"/>
			<point x="747" y="494"/>
			<point x="546" y="695"/>
			<point x="403" y="695" type="qcurve" smooth="yes"/>
			<point x="259" y="695"/>
			<point x="58" y="494"/>
		</contour>
		<contour>
			<point x="407" y="142" type="qcurve" smooth="yes"/>
			<point x="327" y="142"/>
			<point x="203" y="255"/>
			<point x="203" y="350" type="qcurve" smooth="yes"/>
			<point x="203" y="434"/>
			<point x="321" y="557"/>
			<point x="407" y="557" type="qcurve" smooth="yes"/>
			<point x="441" y="557"/>
			<point x="508" y="533"/>
			<point x="536" y="512" type="qcurve"/>
			<point x="523" y="494" type="line"/>
			<point x="517" y="500"/>
			<point x="454" y="535"/>
			<point x="407" y="535" type="qcurve" smooth="yes"/>
			<point x="332" y="535"/>
			<point x="225" y="422"/>
			<point x="225" y="350" type="qcurve" smooth="yes"/>
			<point x="225" y="271"/>
			<point x="334" y="164"/>
			<point x="407" y="164" type="qcurve" smooth="yes"/>
			<point x="447" y="164"/>
			<point x="504" y="185"/>
			<point x="528" y="201" type="qcurve"/>
			<point x="540" y="185" type="line"/>
			<point x="509" y="163"/>
			<point x="441" y="142"/>
		</contour>
	</outline>
</glyph>
<glyph name="logicalnot" format="2">
	<advance width="820"/>
	<unicode hex="00AC"/>
	<note>
		logicalnot
	</note>
	<outline>
		<contour>
			<point x="755" y="117" type="line"/>
			<point x="733" y="117" type="line"/>
			<point x="733" y="379" type="line"/>
			<point x="744" y="367" type="line"/>
			<point x="65" y="367" type="line"/>
			<point x="65" y="389" type="line"/>
			<point x="755" y="389" type="line"/>
		</contour>
	</outline>
</glyph>
<glyph name="plusminus" format="2">
	<advance width="652"/>
	<unicode hex="00B1"/>
	<note>
		plusminus
	</note>
	<outline>
		<contour>
			<point x="599" y="346" type="line"/>
			<point x="53" y="346" type="line"/>
			<point x="53" y="368" type="line"/>
			<point x="599" y="368" type="line"/>
		</contour>
		<contour>
			<point x="334" y="183" type="line"/>
			<point x="312" y="183" type="line"/>
			<point x="312" y="525" type="line"/>
			<point x="334" y="525" type="line"/>
		</contour>
		<contour>
			<point x="599" y="68" type="line"/>
			<point x="53" y="68" type="line"/>
			<point x="53" y="90" type="line"/>
			<point x="599" y="90" type="line"/>
		</contour>
	</outline>
</glyph>
<glyph name="acute" format="2">
	<advance width="269"/>
	<unicode hex="00B4"/>
	<anchor x="96" y="569" name="_top"/>
	<outline>
		<contour>
			<point x="209" y="701" type="line"/>
			<point x="65" y="597" type="line"/>
			<point x="55" y="612" type="line"/>
			<point x="195" y="722" type="line"/>
		</contour>
	</outline>
</glyph>
<glyph name="micro" format="2">
	<advance width="669"/>
	<unicode hex="00B5"/>
	<note>
		uni00B5
	</note>
	<outline>
		<contour>
			<point x="567" y="525" type="line"/>
			<point x="589" y="525" type="line"/>
			<point x="589" y="0" type="line"/>
			<point x="569" y="0" type="line"/>
			<point x="567" y="161" type="line"/>
			<point x="581" y="165" type="line"/>
			<point x="564" y="105"/>
			<point x="422" y="-5"/>
			<point x="323" y="-5" type="qcurve"/>
			<point x="205" y="-5"/>
			<point x="78" y="119"/>
			<point x="78" y="182" type="qcurve"/>
			<point x="95" y="158" type="line"/>
			<point x="95" y="-157" type="line"/>
			<point x="73" y="-157" type="line"/>
			<point x="73" y="525" type="line"/>
			<point x="95" y="525" type="line"/>
			<point x="95" y="214" type="line" smooth="yes"/>
			<point x="95" y="122"/>
			<point x="221" y="17"/>
			<point x="318" y="17" type="qcurve"/>
			<point x="426" y="17"/>
			<point x="566" y="144"/>
			<point x="567" y="182" type="qcurve"/>
		</contour>
	</outline>
</glyph>
<glyph name="cedilla" format="2">
	<advance width="268"/>
	<unicode hex="00B8"/>
	<anchor x="141" y="0" name="_bottom"/>
	<outline>
		<contour>
			<point x="80" y="-78" type="line"/>
			<point x="67" y="-68" type="line"/>
			<point x="118" y="0" type="line"/>
			<point x="140" y="0" type="line"/>
		</contour>
		<contour>
			<point x="197" y="-139" type="qcurve" smooth="yes"/>
			<point x="197" y="-167"/>
			<point x="172" y="-197"/>
			<point x="151" y="-205" type="qcurve" smooth="yes"/>
			<point x="136" y="-211"/>
			<point x="90" y="-221"/>
			<point x="51" y="-227" type="qcurve"/>
			<point x="46" y="-206" type="line"/>
			<point x="98" y="-200"/>
			<point x="176" y="-174"/>
			<point x="176" y="-141" type="qcurve"/>
			<point x="176" y="-116"/>
			<point x="129" y="-88"/>
			<point x="75" y="-88" type="qcurve"/>
			<point x="67" y="-70" type="line"/>
			<point x="67" y="-68" type="line"/>
			<point x="87" y="-68" type="line"/>
			<point x="134" y="-68"/>
			<point x="197" y="-104"/>
		</contour>
	</outline>
</glyph>
<glyph name="multiply" format="2">
	<advance width="544"/>
	<unicode hex="00D7"/>
	<note>
		multiply
	</note>
	<outline>
		<contour>
			<point x="504" y="94" type="line"/>
			<point x="487" y="79" type="line"/>
			<point x="49" y="456" type="line"/>
			<point x="66" y="471" type="line"/>
		</contour>
		<contour>
			<point x="57" y="79" type="line"/>
			<point x="40" y="94" type="line"/>
			<point x="478" y="471" type="line"/>
			<point x="495" y="456" type="line"/>
		</contour>
	</outline>
</glyph>
<glyph name="Thorn" format="2">
	<advance width="726"/>
	<unicode hex="00DE"/>
	<anchor x="477" y="700" name="top"/>
	<anchor x="477" y="0" name="bottom"/>
	<note>
		Thorn
	</note>
	<outline>
		<contour>
			<point x="110" y="700" type="line"/>
			<point x="132" y="700" type="line"/>
			<point x="132" y="0" type="line"/>
			<point x="110" y="0" type="line"/>
		</contour>
		<contour>
			<point x="122" y="171" type="line"/>
			<point x="122" y="193" type="line"/>
			<point x="463" y="193" type="line" smooth="yes"/>
			<point x="552" y="193"/>
			<point x="648" y="278"/>
			<point x="648" y="358" type="qcurve" smooth="yes"/>
			<point x="648" y="437"/>
			<point x="552" y="521"/>
			<point x="463" y="521" type="qcurve"/>
			<point x="122" y="521" type="line"/>
			<point x="122" y="543" type="line"/>
			<point x="450" y="543" type="line" smooth="yes"/>
			<point x="556" y="543"/>
			<point x="671" y="447"/>
			<point x="671" y="358" type="qcurve" smooth="yes"/>
			<point x="671" y="268"/>
			<point x="556" y="171"/>
			<point x="449" y="171" type="qcurve"/>
		</contour>
	</outline>
</glyph>
<glyph name="divide" format="2">
	<advance width="728"/>
	<unicode hex="00F7"/>
	<note>
		divide
	</note>
	<outline>
		<contour>
			<point x="670" y="294" type="line"/>
			<point x="56" y="294" type="line"/>
			<point x="56" y="316" type="line"/>
			<point x="670" y="316" type="line"/>
		</contour>
		<contour>
			<point x="402" y="149" type="qcurve" smooth="yes"/>
			<point x="402" y="135"/>
			<point x="382" y="119"/>
			<point x="363" y="119" type="qcurve" smooth="yes"/>
			<point x="345" y="119"/>
			<point x="325" y="134"/>
			<point x="325" y="147" type="qcurve" smooth="yes"/>
			<point x="325" y="161"/>
			<point x="345" y="177"/>
			<point x="363" y="177" type="qcurve" smooth="yes"/>
			<point x="382" y="177"/>
			<point x="402" y="162"/>
		</contour>
		<contour>
			<point x="402" y="463" type="qcurve" smooth="yes"/>
			<point x="402" y="448"/>
			<point x="382" y="432"/>
			<point x="363" y="432" type="qcurve" smooth="yes"/>
			<point x="345" y="432"/>
			<point x="325" y="447"/>
			<point x="325" y="461" type="qcurve" smooth="yes"/>
			<point x="325" y="475"/>
			<point x="345" y="490"/>
			<point x="363" y="490" type="qcurve" smooth="yes"/>
			<point x="382" y="490"/>
			<point x="402" y="476"/>
		</contour>
	</outline>
</glyph>
<glyph name="Hbar" format="2">
	<advance width="1010"/>
	<unicode hex="0126"/>
	<anchor x="593" y="0" name="bottom"/>
	<anchor x="593" y="700" name="top"/>
	<anchor x="68" y="700" name="topleft"/>
	<anchor x="593" y="350" name="center"/>
	<note>
		Hbar
	</note>
	<outline>
		<contour>
			<point x="150" y="541" type="line"/>
			<point x="24" y="541" type="line"/>
			<point x="24" y="562" type="line"/>
			<point x="150" y="562" type="line"/>
			<point x="167" y="562" type="line"/>
			<point x="857" y="562" type="line"/>
			<point x="872" y="562" type="line"/>
			<point x="985" y="562" type="line"/>
			<point x="985" y="541" type="line"/>
			<point x="872" y="541" type="line"/>
			<point x="857" y="541" type="line"/>
			<point x="167" y="541" type="line"/>
		</contour>
		<contour>
			<point x="164" y="700" type="line"/>
			<point x="186" y="700" type="line"/>
			<point x="186" y="0" type="line"/>
			<point x="164" y="0" type="line"/>
		</contour>
		<contour>
			<point x="793" y="700" type="line"/>
			<point x="815" y="700" type="line"/>
			<point x="815" y="0" type="line"/>
			<point x="793" y="0" type="line"/>
		</contour>
		<contour>
			<point x="175" y="334" type="line"/>
			<point x="176" y="356" type="line"/>
			<point x="804" y="356" type="line"/>
			<point x="804" y="334" type="line"/>
		</contour>
	</outline>
</glyph>
<glyph name="Schwa" format="2">
	<advance width="815"/>
	<unicode hex="018F"/>
	<outline>
		<contour>
			<point x="760" y="344" type="qcurve" smooth="yes"/>
			<point x="760" y="189"/>
			<point x="555" y="-10"/>
			<point x="403" y="-10" type="qcurve" smooth="yes"/>
			<point x="259" y="-10"/>
			<point x="52" y="192"/>
			<point x="55" y="353" type="qcurve"/>
			<point x="55" y="365" type="line"/>
			<point x="751" y="365" type="line"/>
			<point x="751" y="343" type="line"/>
			<point x="77" y="343" type="line"/>
			<point x="78" y="207"/>
			<point x="261" y="12"/>
			<point x="404" y="12" type="qcurve" smooth="yes"/>
			<point x="540" y="12"/>
			<point x="738" y="199"/>
			<point x="738" y="348" type="qcurve"/>
			<point x="738" y="508"/>
			<point x="529" y="688"/>
			<point x="387" y="688" type="qcurve" smooth="yes"/>
			<point x="313" y="688"/>
			<point x="185" y="629"/>
			<point x="138" y="576" type="qcurve"/>
			<point x="123" y="589" type="line"/>
			<point x="172" y="646"/>
			<point x="304" y="710"/>
			<point x="390" y="710" type="qcurve"/>
			<point x="550" y="710"/>
			<point x="760" y="511"/>
		</contour>
	</outline>
</glyph>
<glyph name="florin" format="2">
	<advance width="707"/>
	<unicode hex="0192"/>
	<note>
		florin
	</note>
	<outline>
		<contour>
			<point x="118" y="-30" type="qcurve"/>
			<point x="78" y="-30"/>
			<point x="21" y="-8"/>
			<point x="4" y="2" type="qcurve"/>
			<point x="14" y="24" type="line"/>
			<point x="43" y="8"/>
			<point x="92" y="-7"/>
			<point x="118" y="-7" type="qcurve"/>
			<point x="175" y="-7"/>
			<point x="242" y="70"/>
			<point x="255" y="111" type="qcurve"/>
			<point x="389" y="547" type="line" smooth="yes"/>
			<point x="410" y="614"/>
			<point x="490" y="701"/>
			<point x="561" y="701" type="qcurve" smooth="yes"/>
			<point x="600" y="701"/>
			<point x="674" y="671"/>
			<point x="704" y="641" type="qcurve"/>
			<point x="693" y="621" type="line"/>
			<point x="661" y="650"/>
			<point x="596" y="679"/>
			<point x="560" y="679" type="qcurve"/>
			<point x="504" y="679"/>
			<point x="429" y="608"/>
			<point x="404" y="522" type="qcurve"/>
			<point x="283" y="120" type="line" smooth="yes"/>
			<point x="258" y="38"/>
			<point x="175" y="-30"/>
		</contour>
		<contour>
			<point x="599" y="417" type="line"/>
			<point x="140" y="417" type="line"/>
			<point x="140" y="439" type="line"/>
			<point x="599" y="439" type="line"/>
		</contour>
	</outline>
</glyph>
<glyph name="Nhookleft" format="2">
	<advance width="966"/>
	<unicode hex="019D"/>
	<outline>
		<contour>
			<point x="208" y="470" type="qcurve"/>
			<point x="208" y="70" type="line" smooth="yes"/>
			<point x="208" y="-58"/>
			<point x="90" y="-190"/>
			<point x="2" y="-194" type="qcurve"/>
			<point x="-2" y="-172" type="line"/>
			<point x="92" y="-161"/>
			<point x="186" y="-33"/>
			<point x="186" y="74" type="qcurve"/>
			<point x="186" y="700" type="line"/>
			<point x="216" y="700" type="line"/>
			<point x="841" y="18" type="line"/>
			<point x="836" y="17" type="line"/>
			<point x="834" y="78"/>
			<point x="835" y="203"/>
			<point x="834" y="241" type="qcurve"/>
			<point x="834" y="700" type="line"/>
			<point x="856" y="700" type="line"/>
			<point x="856" y="0" type="line"/>
			<point x="826" y="0" type="line"/>
			<point x="201" y="685" type="line"/>
			<point x="206" y="685" type="line"/>
			<point x="207" y="665"/>
			<point x="208" y="604"/>
			<point x="208" y="562" type="qcurve" smooth="yes"/>
			<point x="208" y="542"/>
			<point x="208" y="496"/>
		</contour>
	</outline>
</glyph>
<glyph name="circumflex" format="2">
	<advance width="362"/>
	<unicode hex="02C6"/>
	<outline>
		<contour>
			<point x="290" y="625" type="line"/>
			<point x="174" y="717" type="line"/>
			<point x="189" y="717" type="line"/>
			<point x="72" y="625" type="line"/>
			<point x="60" y="638" type="line"/>
			<point x="167" y="730" type="line"/>
			<point x="195" y="730" type="line"/>
			<point x="302" y="638" type="line"/>
		</contour>
	</outline>
</glyph>
<glyph name="caron" format="2">
	<advance width="362"/>
	<unicode hex="02C7"/>
	<anchor x="197" y="515" name="_top"/>
	<outline>
		<contour>
			<point x="189" y="649" type="line"/>
			<point x="174" y="649" type="line"/>
			<point x="290" y="741" type="line"/>
			<point x="302" y="728" type="line"/>
			<point x="195" y="636" type="line"/>
			<point x="167" y="636" type="line"/>
			<point x="60" y="728" type="line"/>
			<point x="72" y="741" type="line"/>
		</contour>
	</outline>
</glyph>
<glyph name="breve" format="2">
	<advance width="344"/>
	<unicode hex="02D8"/>
	<anchor x="172" y="548" name="_top"/>
	<outline>
		<contour>
			<point x="172" y="615" type="qcurve" smooth="yes"/>
			<point x="120" y="615"/>
			<point x="51" y="681"/>
			<point x="40" y="735" type="qcurve"/>
			<point x="62" y="737" type="line"/>
			<point x="70" y="696"/>
			<point x="128" y="636"/>
			<point x="172" y="636" type="qcurve" smooth="yes"/>
			<point x="215" y="636"/>
			<point x="275" y="696"/>
			<point x="282" y="737" type="qcurve"/>
			<point x="304" y="735" type="line"/>
			<point x="294" y="681"/>
			<point x="223" y="615"/>
		</contour>
	</outline>
</glyph>
<glyph name="hungarumlautcomb" format="2">
	<advance width="412"/>
	<unicode hex="030B"/>
	<anchor x="254" y="749" name="top"/>
	<anchor x="212" y="525" name="_top"/>
	<outline>
		<contour>
			<point x="211" y="677" type="line"/>
			<point x="67" y="573" type="line"/>
			<point x="57" y="588" type="line"/>
			<point x="197" y="698" type="line"/>
		</contour>
		<contour>
			<point x="331" y="677" type="line"/>
			<point x="187" y="573" type="line"/>
			<point x="177" y="588" type="line"/>
			<point x="317" y="698" type="line"/>
		</contour>
	</outline>
</glyph>
<glyph name="caroncomb" format="2">
	<advance width="362"/>
	<unicode hex="030C"/>
	<anchor x="198" y="773" name="top"/>
	<anchor x="198" y="525" name="_top"/>
	<outline>
		<contour>
			<point x="189" y="649" type="line"/>
			<point x="174" y="649" type="line"/>
			<point x="290" y="741" type="line"/>
			<point x="302" y="728" type="line"/>
			<point x="195" y="636" type="line"/>
			<point x="167" y="636" type="line"/>
			<point x="60" y="728" type="line"/>
			<point x="72" y="741" type="line"/>
		</contour>
	</outline>
</glyph>
<glyph name="dieresisbelowcomb" format="2">
	<advance width="0"/>
	<unicode hex="0324"/>
	<anchor x="198" y="0" name="_bottom"/>
	<anchor x="198" y="-150" name="bottom"/>
	<outline>
		<contour>
			<point x="285" y="-150" type="qcurve"/>
			<point x="265" y="-150"/>
			<point x="245" y="-132"/>
			<point x="245" y="-114" type="qcurve"/>
			<point x="245" y="-104" type="line" smooth="yes"/>
			<point x="245" y="-84"/>
			<point x="267" y="-68"/>
			<point x="286" y="-68" type="qcurve"/>
			<point x="306" y="-68"/>
			<point x="327" y="-85"/>
			<point x="327" y="-104" type="qcurve"/>
			<point x="327" y="-114" type="line" smooth="yes"/>
			<point x="327" y="-135"/>
			<point x="306" y="-150"/>
		</contour>
		<contour>
			<point x="103" y="-150" type="qcurve"/>
			<point x="83" y="-150"/>
			<point x="63" y="-132"/>
			<point x="63" y="-114" type="qcurve"/>
			<point x="63" y="-104" type="line" smooth="yes"/>
			<point x="63" y="-85"/>
			<point x="85" y="-68"/>
			<point x="103" y="-68" type="qcurve"/>
			<point x="125" y="-68"/>
			<point x="145" y="-85"/>
			<point x="145" y="-104" type="qcurve"/>
			<point x="145" y="-114" type="line" smooth="yes"/>
			<point x="145" y="-135"/>
			<point x="124" y="-150"/>
		</contour>
	</outline>
</glyph>
<glyph name="commaaccentcomb" format="2">
	<advance width="0"/>
	<unicode hex="0326"/>
	<anchor x="79" y="100" name="_bottom"/>
	<anchor x="78" y="-230" name="bottom"/>
	<anchor x="76" y="-230" name="_top"/>
	<outline>
		<contour>
			<point x="87" y="-152" type="qcurve"/>
			<point x="74" y="-139" type="line"/>
			<point x="94" y="-122"/>
			<point x="106" y="-102"/>
			<point x="106" y="-92" type="qcurve" smooth="yes"/>
			<point x="106" y="-84"/>
			<point x="98" y="-72"/>
			<point x="92" y="-68" type="qcurve" smooth="yes"/>
			<point x="84" y="-63"/>
			<point x="71" y="-50"/>
			<point x="71" y="-40" type="qcurve"/>
			<point x="71" y="-29"/>
			<point x="87" y="-16"/>
			<point x="98" y="-16" type="qcurve"/>
			<point x="114" y="-16"/>
			<point x="134" y="-36"/>
			<point x="134" y="-62" type="qcurve" smooth="yes"/>
			<point x="134" y="-94"/>
			<point x="111" y="-132"/>
		</contour>
	</outline>
</glyph>
<glyph name="ogonekcomb" format="2">
	<advance width="295"/>
	<unicode hex="0328"/>
	<anchor x="248" y="10" name="_ogonek"/>
	<outline>
		<contour>
			<point x="151" y="-230" type="qcurve" smooth="yes"/>
			<point x="111" y="-230"/>
			<point x="56" y="-175"/>
			<point x="56" y="-130" type="qcurve" smooth="yes"/>
			<point x="56" y="-58"/>
			<point x="170" y="14"/>
			<point x="206" y="18" type="qcurve"/>
			<point x="211" y="8" type="line"/>
			<point x="211" y="0" type="line"/>
			<point x="159" y="-9"/>
			<point x="78" y="-75"/>
			<point x="78" y="-130" type="qcurve" smooth="yes"/>
			<point x="78" y="-163"/>
			<point x="119" y="-208"/>
			<point x="151" y="-208" type="qcurve" smooth="yes"/>
			<point x="177" y="-208"/>
			<point x="212" y="-181"/>
			<point x="221" y="-163" type="qcurve"/>
			<point x="236" y="-176" type="line"/>
			<point x="226" y="-196"/>
			<point x="183" y="-230"/>
		</contour>
	</outline>
</glyph>
<glyph name="pi" format="2">
	<advance width="834"/>
	<unicode hex="03C0"/>
	<note>
		pi
	</note>
	<outline>
		<contour>
			<point x="206" y="0" type="line"/>
			<point x="184" y="0" type="line"/>
			<point x="184" y="510" type="line"/>
			<point x="193" y="503" type="line"/>
			<point x="40" y="503" type="line"/>
			<point x="40" y="525" type="line"/>
			<point x="794" y="525" type="line"/>
			<point x="794" y="503" type="line"/>
			<point x="643" y="503" type="line"/>
			<point x="650" y="510" type="line"/>
			<point x="650" y="0" type="line"/>
			<point x="628" y="0" type="line"/>
			<point x="628" y="510" type="line"/>
			<point x="634" y="503" type="line"/>
			<point x="197" y="503" type="line"/>
			<point x="206" y="510" type="line"/>
		</contour>
	</outline>
</glyph>
<glyph name="quoteleft" format="2">
	<advance width="236"/>
	<unicode hex="2018"/>
	<note>
		quoteleft
	</note>
	<outline>
		<contour>
			<point x="126" y="512" type="qcurve"/>
			<point x="104" y="512"/>
			<point x="80" y="543"/>
			<point x="80" y="573" type="qcurve"/>
			<point x="80" y="602"/>
			<point x="113" y="662"/>
			<point x="144" y="688" type="qcurve"/>
			<point x="153" y="676" type="line"/>
			<point x="131" y="652"/>
			<point x="108" y="614"/>
			<point x="108" y="602" type="qcurve"/>
			<point x="108" y="589"/>
			<point x="120" y="575"/>
			<point x="137" y="569" type="qcurve" smooth="yes"/>
			<point x="145" y="566"/>
			<point x="156" y="551"/>
			<point x="156" y="540" type="qcurve"/>
			<point x="156" y="528"/>
			<point x="141" y="512"/>
		</contour>
	</outline>
</glyph>
<glyph name="won" format="2">
	<advance width="1121"/>
	<unicode hex="20A9"/>
	<anchor x="640" y="640" name="top"/>
	<anchor x="640" y="0" name="bottom"/>
	<outline>
		<contour>
			<point x="278" y="0" type="line"/>
			<point x="44" y="700" type="line"/>
			<point x="68" y="700" type="line"/>
			<point x="227" y="220" type="line" smooth="yes"/>
			<point x="255" y="134"/>
			<point x="267" y="102"/>
			<point x="297" y="10" type="qcurve"/>
			<point x="292" y="10" type="line"/>
			<point x="327" y="97"/>
			<point x="361" y="181"/>
			<point x="381" y="228" type="qcurve"/>
			<point x="507" y="541" type="line"/>
			<point x="522" y="541" type="line"/>
			<point x="645" y="230" type="line" smooth="yes"/>
			<point x="666" y="176"/>
			<point x="718" y="39"/>
			<point x="730" y="10" type="qcurve"/>
			<point x="716" y="10" type="line"/>
			<point x="727" y="40"/>
			<point x="759" y="130"/>
			<point x="794" y="224" type="qcurve"/>
			<point x="973" y="700" type="line"/>
			<point x="997" y="700" type="line"/>
			<point x="735" y="0" type="line"/>
			<point x="711" y="0" type="line"/>
			<point x="508" y="517" type="line"/>
			<point x="521" y="517" type="line"/>
			<point x="311" y="0" type="line"/>
		</contour>
		<contour>
			<point x="166" y="351" type="line"/>
			<point x="42" y="351" type="line"/>
			<point x="42" y="373" type="line"/>
			<point x="158" y="373" type="line"/>
			<point x="170" y="373" type="line"/>
			<point x="315" y="373" type="line"/>
			<point x="315" y="351" type="line"/>
			<point x="177" y="351" type="line"/>
		</contour>
		<contour>
			<point x="721" y="373" type="line"/>
			<point x="856" y="373" type="line"/>
			<point x="865" y="373" type="line"/>
			<point x="1069" y="373" type="line"/>
			<point x="1069" y="351" type="line"/>
			<point x="861" y="351" type="line"/>
			<point x="850" y="351" type="line"/>
			<point x="721" y="351" type="line"/>
		</contour>
		<contour>
			<point x="315" y="373" type="line"/>
			<point x="721" y="373" type="line"/>
			<point x="721" y="351" type="line"/>
			<point x="315" y="351" type="line"/>
		</contour>
	</outline>
</glyph>
<glyph name="dong" format="2">
	<advance width="651"/>
	<unicode hex="20AB"/>
	<outline>
		<contour>
			<point x="282" y="146" type="qcurve"/>
			<point x="176" y="146"/>
			<point x="40" y="245"/>
			<point x="40" y="321" type="qcurve"/>
			<point x="40" y="398"/>
			<point x="179" y="497"/>
			<point x="287" y="497" type="qcurve"/>
			<point x="381" y="497"/>
			<point x="508" y="421"/>
			<point x="514" y="366" type="qcurve"/>
			<point x="507" y="380" type="line"/>
			<point x="507" y="700" type="line"/>
			<point x="529" y="700" type="line"/>
			<point x="529" y="156" type="line"/>
			<point x="507" y="156" type="line"/>
			<point x="507" y="284" type="line"/>
			<point x="512" y="285" type="line"/>
			<point x="512" y="228"/>
			<point x="382" y="146"/>
		</contour>
		<contour>
			<point x="62" y="321" type="qcurve"/>
			<point x="62" y="254"/>
			<point x="189" y="168"/>
			<point x="287" y="168" type="qcurve"/>
			<point x="384" y="168"/>
			<point x="509" y="254"/>
			<point x="509" y="321" type="qcurve"/>
			<point x="509" y="388"/>
			<point x="385" y="475"/>
			<point x="289" y="475" type="qcurve"/>
			<point x="190" y="475"/>
			<point x="62" y="388"/>
		</contour>
		<contour>
			<point x="569" y="0" type="line"/>
			<point x="45" y="0" type="line"/>
			<point x="45" y="22" type="line"/>
			<point x="569" y="22" type="line"/>
		</contour>
		<contour>
			<point x="626" y="598" type="line"/>
			<point x="223" y="598" type="line"/>
			<point x="223" y="620" type="line"/>
			<point x="626" y="620" type="line"/>
		</contour>
	</outline>
</glyph>
<glyph name="euro" format="2">
	<advance width="799"/>
	<unicode hex="20AC"/>
	<note>
		Euro
	</note>
	<outline>
		<contour>
			<point x="557" y="259" type="line"/>
			<point x="15" y="259" type="line"/>
			<point x="15" y="281" type="line"/>
			<point x="557" y="281" type="line"/>
		</contour>
		<contour>
			<point x="557" y="400" type="line"/>
			<point x="15" y="400" type="line"/>
			<point x="15" y="422" type="line"/>
			<point x="557" y="422" type="line"/>
		</contour>
		<contour>
			<point x="529" y="-10" type="qcurve"/>
			<point x="348" y="-10"/>
			<point x="115" y="191"/>
			<point x="115" y="346" type="qcurve"/>
			<point x="115" y="505"/>
			<point x="348" y="710"/>
			<point x="529" y="710" type="qcurve"/>
			<point x="577" y="710"/>
			<point x="704" y="687"/>
			<point x="753" y="670" type="qcurve"/>
			<point x="745" y="650" type="line"/>
			<point x="695" y="667"/>
			<point x="574" y="688"/>
			<point x="529" y="688" type="qcurve"/>
			<point x="358" y="688"/>
			<point x="138" y="495"/>
			<point x="138" y="346" type="qcurve"/>
			<point x="138" y="200"/>
			<point x="358" y="12"/>
			<point x="529" y="12" type="qcurve"/>
			<point x="578" y="12"/>
			<point x="699" y="31"/>
			<point x="744" y="45" type="qcurve"/>
			<point x="752" y="25" type="line"/>
			<point x="706" y="10"/>
			<point x="580" y="-10"/>
		</contour>
	</outline>
</glyph>
<glyph name="guarani" format="2">
	<advance width="925"/>
	<unicode hex="20B2"/>
	<anchor x="541" y="700" name="top"/>
	<anchor x="541" y="0" name="bottom"/>
	<outline>
		<contour>
			<point x="51" y="349" type="qcurve"/>
			<point x="51" y="503"/>
			<point x="287" y="710"/>
			<point x="475" y="710" type="qcurve"/>
			<point x="570" y="710"/>
			<point x="727" y="648"/>
			<point x="788" y="590" type="qcurve"/>
			<point x="774" y="574" type="line"/>
			<point x="722" y="626"/>
			<point x="568" y="688"/>
			<point x="475" y="688" type="qcurve"/>
			<point x="299" y="688"/>
			<point x="74" y="494"/>
			<point x="74" y="349" type="qcurve"/>
			<point x="74" y="204"/>
			<point x="299" y="12"/>
			<point x="475" y="12" type="qcurve"/>
			<point x="639" y="12"/>
			<point x="855" y="206"/>
			<point x="855" y="329" type="qcurve"/>
			<point x="855" y="337" type="line"/>
			<point x="866" y="326" type="line"/>
			<point x="475" y="326" type="line"/>
			<point x="475" y="348" type="line"/>
			<point x="877" y="348" type="line"/>
			<point x="877" y="345"/>
			<point x="877" y="340"/>
			<point x="877" y="337" type="qcurve" smooth="yes"/>
			<point x="877" y="196"/>
			<point x="651" y="-10"/>
			<point x="475" y="-10" type="qcurve"/>
			<point x="287" y="-10"/>
			<point x="51" y="195"/>
		</contour>
		<contour>
			<point x="485" y="797" type="line"/>
			<point x="485" y="-136" type="line"/>
			<point x="463" y="-136" type="line"/>
			<point x="463" y="797" type="line"/>
		</contour>
	</outline>
</glyph>
<glyph name="rupeeIndian" format="2">
	<advance width="712"/>
	<unicode hex="20B9"/>
	<outline>
		<contour>
			<point x="376" y="678" type="line"/>
			<point x="371" y="690" type="line"/>
			<point x="470" y="671"/>
			<point x="549" y="580"/>
			<point x="549" y="511" type="qcurve"/>
			<point x="549" y="418"/>
			<point x="417" y="314"/>
			<point x="295" y="314" type="qcurve"/>
			<point x="190" y="314" type="line"/>
			<point x="160" y="315" type="line"/>
			<point x="160" y="336" type="line"/>
			<point x="301" y="336" type="line"/>
			<point x="409" y="336"/>
			<point x="526" y="428"/>
			<point x="526" y="513" type="qcurve"/>
			<point x="526" y="593"/>
			<point x="409" y="678"/>
			<point x="301" y="678" type="qcurve"/>
			<point x="80" y="678" type="line"/>
			<point x="80" y="700" type="line"/>
			<point x="649" y="700" type="line"/>
			<point x="649" y="678" type="line"/>
		</contour>
		<contour>
			<point x="160" y="315" type="line"/>
			<point x="171" y="336" type="line"/>
			<point x="536" y="0" type="line"/>
			<point x="503" y="0" type="line"/>
		</contour>
		<contour>
			<point x="650" y="500" type="line"/>
			<point x="242" y="500" type="line"/>
			<point x="242" y="522" type="line"/>
			<point x="650" y="522" type="line"/>
		</contour>
	</outline>
</glyph>
<glyph name="liraTurkish" format="2">
	<advance width="759"/>
	<unicode hex="20BA"/>
	<outline>
		<contour>
			<point x="220" y="0" type="qcurve"/>
			<point x="218" y="0"/>
			<point x="210" y="1"/>
			<point x="205" y="5" type="qcurve"/>
			<point x="205" y="700" type="line"/>
			<point x="227" y="700" type="line"/>
			<point x="227" y="8" type="line"/>
			<point x="218" y="22" type="line"/>
			<point x="386" y="22"/>
			<point x="650" y="162"/>
			<point x="675" y="282" type="qcurve"/>
			<point x="695" y="273" type="line"/>
			<point x="671" y="154"/>
			<point x="403" y="0"/>
		</contour>
		<contour>
			<point x="84" y="382" type="line"/>
			<point x="78" y="402" type="line"/>
			<point x="495" y="636" type="line"/>
			<point x="506" y="617" type="line"/>
		</contour>
		<contour>
			<point x="96" y="191" type="line"/>
			<point x="88" y="209" type="line"/>
			<point x="505" y="443" type="line"/>
			<point x="516" y="425" type="line"/>
		</contour>
	</outline>
</glyph>
<glyph name="ruble" format="2">
	<advance width="878"/>
	<unicode hex="20BD"/>
	<anchor x="522" y="700" name="top"/>
	<anchor x="522" y="0" name="bottom"/>
	<outline>
		<contour>
			<point x="271" y="303" type="line"/>
			<point x="271" y="281" type="line"/>
			<point x="100" y="281" type="line"/>
			<point x="100" y="303" type="line"/>
		</contour>
		<contour>
			<point x="212" y="700" type="line"/>
			<point x="572" y="700" type="line"/>
			<point x="677" y="700"/>
			<point x="792" y="593"/>
			<point x="792" y="507" type="qcurve" smooth="yes"/>
			<point x="792" y="406"/>
			<point x="677" y="281"/>
			<point x="571" y="281" type="qcurve"/>
			<point x="220" y="281" type="line"/>
			<point x="234" y="300" type="line"/>
			<point x="234" y="0" type="line"/>
			<point x="212" y="0" type="line"/>
		</contour>
		<contour>
			<point x="219" y="303" type="line"/>
			<point x="565" y="303" type="line" smooth="yes"/>
			<point x="667" y="303"/>
			<point x="769" y="413"/>
			<point x="769" y="507" type="qcurve" smooth="yes"/>
			<point x="769" y="588"/>
			<point x="668" y="678"/>
			<point x="565" y="678" type="qcurve"/>
			<point x="221" y="678" type="line"/>
			<point x="234" y="700" type="line"/>
			<point x="234" y="295" type="line"/>
		</contour>
		<contour>
			<point x="498" y="161" type="line"/>
			<point x="98" y="161" type="line"/>
			<point x="98" y="179" type="line"/>
			<point x="498" y="179" type="line"/>
		</contour>
	</outline>
</glyph>
<glyph name="literSign" format="2">
	<advance width="539"/>
	<unicode hex="2113"/>
	<note>
		uni2113
	</note>
	<outline>
		<contour>
			<point x="306" y="12" type="qcurve" smooth="yes"/>
			<point x="351" y="12"/>
			<point x="427" y="52"/>
			<point x="431" y="63" type="qcurve"/>
			<point x="442" y="44" type="line"/>
			<point x="415" y="18"/>
			<point x="344" y="-10"/>
			<point x="310" y="-10" type="qcurve" smooth="yes"/>
			<point x="228" y="-10"/>
			<point x="132" y="140"/>
			<point x="132" y="247" type="qcurve" smooth="yes"/>
			<point x="132" y="313"/>
			<point x="154" y="482"/>
			<point x="183" y="558" type="qcurve" smooth="yes"/>
			<point x="210" y="633"/>
			<point x="313" y="747"/>
			<point x="388" y="748" type="qcurve"/>
			<point x="449" y="748"/>
			<point x="519" y="672"/>
			<point x="519" y="608" type="qcurve" smooth="yes"/>
			<point x="519" y="547"/>
			<point x="443" y="367"/>
			<point x="342" y="264" type="qcurve" smooth="yes"/>
			<point x="304" y="224"/>
			<point x="155" y="113"/>
			<point x="57" y="67" type="qcurve"/>
			<point x="46" y="87" type="line"/>
			<point x="139" y="131"/>
			<point x="289" y="242"/>
			<point x="343" y="298" type="qcurve" smooth="yes"/>
			<point x="409" y="367"/>
			<point x="496" y="536"/>
			<point x="496" y="612" type="qcurve" smooth="yes"/>
			<point x="496" y="657"/>
			<point x="440" y="727"/>
			<point x="387" y="726" type="qcurve"/>
			<point x="319" y="726"/>
			<point x="219" y="592"/>
			<point x="197" y="523" type="qcurve" smooth="yes"/>
			<point x="172" y="445"/>
			<point x="155" y="290"/>
			<point x="155" y="242" type="qcurve" smooth="yes"/>
			<point x="155" y="158"/>
			<point x="235" y="12"/>
		</contour>
	</outline>
</glyph>
<glyph name="Ohm" format="2">
	<advance width="907"/>
	<unicode hex="2126"/>
	<note>
		Ohm
	</note>
	<outline>
		<contour>
			<point x="71" y="384" type="qcurve"/>
			<point x="71" y="526"/>
			<point x="287" y="710"/>
			<point x="454" y="710" type="qcurve"/>
			<point x="621" y="710"/>
			<point x="837" y="526"/>
			<point x="837" y="384" type="qcurve"/>
			<point x="837" y="287"/>
			<point x="707" y="76"/>
			<point x="607" y="10" type="qcurve"/>
			<point x="602" y="22" type="line"/>
			<point x="883" y="22" type="line"/>
			<point x="883" y="0" type="line"/>
			<point x="591" y="0" type="line"/>
			<point x="591" y="22" type="line"/>
			<point x="644" y="58"/>
			<point x="733" y="155"/>
			<point x="763" y="208" type="qcurve" smooth="yes"/>
			<point x="787" y="252"/>
			<point x="814" y="342"/>
			<point x="814" y="383" type="qcurve"/>
			<point x="814" y="516"/>
			<point x="611" y="688"/>
			<point x="454" y="688" type="qcurve"/>
			<point x="297" y="688"/>
			<point x="95" y="516"/>
			<point x="95" y="383" type="qcurve"/>
			<point x="95" y="343"/>
			<point x="124" y="253"/>
			<point x="150" y="208" type="qcurve" smooth="yes"/>
			<point x="180" y="157"/>
			<point x="266" y="60"/>
			<point x="318" y="22" type="qcurve"/>
			<point x="318" y="0" type="line"/>
			<point x="25" y="0" type="line"/>
			<point x="25" y="22" type="line"/>
			<point x="302" y="22" type="line"/>
			<point x="301" y="10" type="line"/>
			<point x="201" y="83"/>
			<point x="71" y="294"/>
		</contour>
	</outline>
</glyph>
<glyph name="estimated" format="2">
	<advance width="629"/>
	<unicode hex="212E"/>
	<note>
		estimated
	</note>
	<outline>
		<contour>
			<point x="550" y="115" type="qcurve" smooth="yes"/>
			<point x="504" y="49"/>
			<point x="398" y="-11"/>
			<point x="319" y="-11" type="qcurve" smooth="yes"/>
			<point x="194" y="-11"/>
			<point x="43" y="162"/>
			<point x="43" y="285" type="qcurve" smooth="yes"/>
			<point x="43" y="409"/>
			<point x="194" y="581"/>
			<point x="319" y="581" type="qcurve" smooth="yes"/>
			<point x="436" y="581"/>
			<point x="588" y="429"/>
			<point x="595" y="309" type="qcurve" smooth="yes"/>
			<point x="596" y="300"/>
			<point x="584" y="285"/>
			<point x="573" y="285" type="qcurve"/>
			<point x="93" y="285" type="line"/>
			<point x="99" y="292" type="line"/>
			<point x="99" y="213" type="line" smooth="yes"/>
			<point x="99" y="175"/>
			<point x="139" y="112"/>
			<point x="160" y="92" type="qcurve" smooth="yes"/>
			<point x="194" y="57"/>
			<point x="273" y="28"/>
			<point x="319" y="28" type="qcurve" smooth="yes"/>
			<point x="382" y="28"/>
			<point x="480" y="80"/>
			<point x="517" y="139" type="qcurve"/>
			<point x="520" y="144"/>
			<point x="529" y="150"/>
			<point x="534" y="150" type="qcurve" smooth="yes"/>
			<point x="542" y="150"/>
			<point x="556" y="140"/>
			<point x="556" y="130" type="qcurve" smooth="yes"/>
			<point x="556" y="126"/>
			<point x="552" y="118"/>
		</contour>
		<contour>
			<point x="89" y="324" type="line"/>
			<point x="551" y="324" type="line"/>
			<point x="537" y="320" type="line"/>
			<point x="537" y="355" type="line" smooth="yes"/>
			<point x="537" y="400"/>
			<point x="501" y="461"/>
			<point x="479" y="483" type="qcurve"/>
			<point x="450" y="512"/>
			<point x="363" y="543"/>
			<point x="318" y="543" type="qcurve" smooth="yes"/>
			<point x="273" y="543"/>
			<point x="175" y="514"/>
			<point x="151" y="481" type="qcurve" smooth="yes"/>
			<point x="131" y="454"/>
			<point x="99" y="386"/>
			<point x="99" y="365" type="qcurve"/>
			<point x="99" y="314" type="line"/>
		</contour>
	</outline>
</glyph>
<glyph name="emptyset" format="2">
	<advance width="781"/>
	<unicode hex="2205"/>
	<anchor x="478" y="0" name="bottom"/>
	<anchor x="860" y="10" name="ogonek"/>
	<anchor x="478" y="525" name="top"/>
	<anchor x="596" y="475" name="topright"/>
	<anchor x="478" y="263" name="center"/>
	<note>
		emptyset
	</note>
	<outline>
		<contour>
			<point x="56" y="1" type="line"/>
			<point x="44" y="18" type="line"/>
			<point x="694" y="529" type="line"/>
			<point x="706" y="511" type="line"/>
		</contour>
		<contour>
			<point x="388" y="529" type="qcurve"/>
			<point x="546" y="529"/>
			<point x="735" y="381"/>
			<point x="735" y="263" type="qcurve"/>
			<point x="735" y="143"/>
			<point x="546" y="-10"/>
			<point x="388" y="-10" type="qcurve"/>
			<point x="231" y="-10"/>
			<point x="40" y="143"/>
			<point x="40" y="263" type="qcurve"/>
			<point x="40" y="381"/>
			<point x="231" y="529"/>
		</contour>
		<contour>
			<point x="388" y="12" type="qcurve"/>
			<point x="525" y="12"/>
			<point x="713" y="152"/>
			<point x="713" y="263" type="qcurve"/>
			<point x="713" y="370"/>
			<point x="525" y="507"/>
			<point x="388" y="507" type="qcurve"/>
			<point x="250" y="507"/>
			<point x="62" y="372"/>
			<point x="62" y="263" type="qcurve"/>
			<point x="62" y="152"/>
			<point x="250" y="12"/>
		</contour>
	</outline>
</glyph>
<glyph name="summation" format="2">
	<advance width="653"/>
	<unicode hex="2211"/>
	<note>
		summation
	</note>
	<outline>
		<contour>
			<point x="619" y="0" type="line"/>
			<point x="64" y="0" type="line"/>
			<point x="59" y="15" type="line"/>
			<point x="446" y="347" type="line"/>
			<point x="446" y="330" type="line"/>
			<point x="69" y="663" type="line"/>
			<point x="72" y="676" type="line"/>
			<point x="609" y="676" type="line"/>
			<point x="609" y="654" type="line"/>
			<point x="97" y="654" type="line"/>
			<point x="97" y="667" type="line"/>
			<point x="460" y="346" type="line"/>
			<point x="460" y="331" type="line"/>
			<point x="91" y="16" type="line"/>
			<point x="81" y="22" type="line"/>
			<point x="619" y="22" type="line"/>
		</contour>
	</outline>
</glyph>
<glyph name="minus" format="2">
	<advance width="743"/>
	<unicode hex="2212"/>
	<note>
		minus
	</note>
	<outline>
		<contour>
			<point x="683" y="276" type="line"/>
			<point x="60" y="276" type="line"/>
			<point x="60" y="298" type="line"/>
			<point x="683" y="298" type="line"/>
		</contour>
	</outline>
</glyph>
<glyph name="divisionslash" format="2">
	<advance width="549"/>
	<unicode hex="2215"/>
	<note>
		divisionslash
	</note>
	<outline>
		<contour>
			<point x="82" y="-107" type="line"/>
			<point x="58" y="-107" type="line"/>
			<point x="482" y="756" type="line"/>
			<point x="506" y="756" type="line"/>
		</contour>
	</outline>
</glyph>
<glyph name="bulletoperator" format="2">
	<advance width="264"/>
	<unicode hex="2219"/>
	<note>
		bulletoperator
	</note>
	<outline>
		<contour>
			<point x="169" y="301" type="qcurve" smooth="yes"/>
			<point x="169" y="286"/>
			<point x="147" y="264"/>
			<point x="133" y="264" type="qcurve" smooth="yes"/>
			<point x="118" y="264"/>
			<point x="95" y="286"/>
			<point x="95" y="301" type="qcurve" smooth="yes"/>
			<point x="95" y="316"/>
			<point x="118" y="338"/>
			<point x="133" y="338" type="qcurve" smooth="yes"/>
			<point x="147" y="338"/>
			<point x="169" y="316"/>
		</contour>
	</outline>
</glyph>
<glyph name="integral" format="2">
	<advance width="752"/>
	<unicode hex="222B"/>
	<note>
		integral
	</note>
	<outline>
		<contour>
			<point x="132" y="-127" type="qcurve" smooth="yes"/>
			<point x="97" y="-127"/>
			<point x="21" y="-89"/>
			<point x="0" y="-71" type="qcurve"/>
			<point x="11" y="-51" type="line"/>
			<point x="52" y="-84"/>
			<point x="107" y="-105"/>
			<point x="134" y="-105" type="qcurve" smooth="yes"/>
			<point x="187" y="-105"/>
			<point x="252" y="-29"/>
			<point x="285" y="72" type="qcurve" smooth="yes"/>
			<point x="441" y="550" type="line" smooth="yes"/>
			<point x="478" y="662"/>
			<point x="560" y="745"/>
			<point x="621" y="745" type="qcurve" smooth="yes"/>
			<point x="663" y="745"/>
			<point x="735" y="727"/>
			<point x="760" y="710" type="qcurve"/>
			<point x="754" y="688" type="line"/>
			<point x="729" y="705"/>
			<point x="659" y="723"/>
			<point x="618" y="723" type="qcurve" smooth="yes"/>
			<point x="562" y="723"/>
			<point x="494" y="639"/>
			<point x="463" y="545" type="qcurve" smooth="yes"/>
			<point x="307" y="71" type="line" smooth="yes"/>
			<point x="270" y="-42"/>
			<point x="195" y="-127"/>
		</contour>
	</outline>
</glyph>
<glyph name="approxequal" format="2">
	<advance width="707"/>
	<unicode hex="2248"/>
	<note>
		approxequal
	</note>
	<outline>
		<contour>
			<point x="494" y="127" type="qcurve"/>
			<point x="475" y="127"/>
			<point x="400" y="145"/>
			<point x="349" y="161" type="qcurve" smooth="yes"/>
			<point x="303" y="174"/>
			<point x="233" y="189"/>
			<point x="213" y="189" type="qcurve"/>
			<point x="169" y="189"/>
			<point x="123" y="157"/>
			<point x="124" y="127" type="qcurve"/>
			<point x="100" y="125" type="line"/>
			<point x="100" y="166"/>
			<point x="160" y="210"/>
			<point x="216" y="210" type="qcurve"/>
			<point x="241" y="210"/>
			<point x="315" y="195"/>
			<point x="359" y="181" type="qcurve" smooth="yes"/>
			<point x="406" y="166"/>
			<point x="479" y="149"/>
			<point x="499" y="149" type="qcurve"/>
			<point x="541" y="149"/>
			<point x="585" y="182"/>
			<point x="584" y="212" type="qcurve"/>
			<point x="607" y="213" type="line"/>
			<point x="607" y="172"/>
			<point x="548" y="127"/>
		</contour>
		<contour>
			<point x="494" y="320" type="qcurve"/>
			<point x="475" y="320"/>
			<point x="400" y="338"/>
			<point x="349" y="354" type="qcurve" smooth="yes"/>
			<point x="303" y="367"/>
			<point x="233" y="382"/>
			<point x="213" y="382" type="qcurve"/>
			<point x="169" y="382"/>
			<point x="123" y="350"/>
			<point x="124" y="320" type="qcurve"/>
			<point x="100" y="318" type="line"/>
			<point x="100" y="359"/>
			<point x="160" y="403"/>
			<point x="216" y="403" type="qcurve"/>
			<point x="241" y="403"/>
			<point x="315" y="388"/>
			<point x="359" y="374" type="qcurve" smooth="yes"/>
			<point x="406" y="359"/>
			<point x="479" y="342"/>
			<point x="499" y="342" type="qcurve"/>
			<point x="541" y="342"/>
			<point x="585" y="375"/>
			<point x="584" y="405" type="qcurve"/>
			<point x="607" y="406" type="line"/>
			<point x="607" y="365"/>
			<point x="548" y="320"/>
		</contour>
	</outline>
</glyph>
<glyph name="notequal" format="2">
	<advance width="706"/>
	<unicode hex="2260"/>
	<note>
		notequal
	</note>
	<outline>
		<contour>
			<point x="145" y="46" type="line"/>
			<point x="533" y="516" type="line"/>
			<point x="560" y="516" type="line"/>
			<point x="172" y="46" type="line"/>
		</contour>
		<contour>
			<point x="641" y="355" type="line"/>
			<point x="65" y="355" type="line"/>
			<point x="65" y="377" type="line"/>
			<point x="641" y="377" type="line"/>
		</contour>
		<contour>
			<point x="65" y="185" type="line"/>
			<point x="65" y="207" type="line"/>
			<point x="641" y="207" type="line"/>
			<point x="641" y="185" type="line"/>
		</contour>
	</outline>
</glyph>
<glyph name="lozenge" format="2">
	<advance width="696"/>
	<unicode hex="25CA"/>
	<note>
		lozenge
	</note>
	<outline>
		<contour>
			<point x="349" y="-37" type="line"/>
			<point x="349" y="-37" type="line"/>
			<point x="36" y="328" type="line"/>
			<point x="36" y="328" type="line"/>
			<point x="349" y="689" type="line"/>
			<point x="349" y="689" type="line"/>
			<point x="660" y="328" type="line"/>
			<point x="660" y="328" type="line"/>
		</contour>
		<contour>
			<point x="60" y="333" type="line"/>
			<point x="358" y="-15" type="line"/>
			<point x="340" y="-15" type="line"/>
			<point x="639" y="336" type="line"/>
			<point x="639" y="320" type="line"/>
			<point x="339" y="667" type="line"/>
			<point x="358" y="667" type="line"/>
			<point x="60" y="323" type="line"/>
		</contour>
	</outline>
</glyph>
<glyph name="I.ss01" format="2">
	<advance width="324"/>
	<anchor x="178" y="0" name="ogonek"/>
	<anchor x="162" y="700" name="top"/>
	<anchor x="108" y="700" name="topleft"/>
	<anchor x="162" y="0" name="bottom"/>
	<note>
		I
	</note>
	<outline>
		<contour>
			<point x="173" y="700" type="qcurve"/>
			<point x="173" y="0" type="line"/>
			<point x="152" y="0" type="line"/>
			<point x="152" y="700" type="line"/>
			<point x="131" y="700"/>
			<point x="193" y="700"/>
		</contour>
	</outline>
</glyph>
<glyph name="J.ss01" format="2">
	<advance width="713"/>
	<anchor x="632" y="700" name="top"/>
	<anchor x="441" y="0" name="bottom"/>
	<note>
		J
	</note>
	<outline>
		<contour>
			<point x="269" y="-10" type="qcurve"/>
			<point x="181" y="-10"/>
			<point x="46" y="88"/>
			<point x="20" y="150" type="qcurve"/>
			<point x="39" y="167" type="line"/>
			<point x="67" y="102"/>
			<point x="192" y="13"/>
			<point x="271" y="13" type="qcurve"/>
			<point x="378" y="13"/>
			<point x="511" y="146"/>
			<point x="511" y="273" type="qcurve"/>
			<point x="511" y="700" type="line"/>
			<point x="533" y="700" type="line"/>
			<point x="533" y="273" type="line"/>
			<point x="533" y="139"/>
			<point x="395" y="-10"/>
		</contour>
	</outline>
</glyph>
<glyph name=".notdef" format="2">
	<advance width="584"/>
	<note>
		.notdef
	</note>
	<outline>
		<contour>
			<point x="40" y="35" type="qcurve"/>
			<point x="40" y="665" type="line" smooth="yes"/>
			<point x="40" y="682.16418"/>
			<point x="57.83582" y="700"/>
			<point x="75" y="700" type="qcurve"/>
			<point x="509" y="700" type="line" smooth="yes"/>
			<point x="526.16418" y="700"/>
			<point x="544" y="682.16418"/>
			<point x="544" y="665" type="qcurve"/>
			<point x="544" y="35" type="line" smooth="yes"/>
			<point x="544" y="17.83582"/>
			<point x="526.16418" y="0"/>
			<point x="509" y="0" type="qcurve"/>
			<point x="75" y="0" type="line" smooth="yes"/>
			<point x="57.83582" y="0"/>
			<point x="40" y="18"/>
		</contour>
		<contour>
			<point x="517" y="678" type="qcurve"/>
			<point x="84" y="678" type="line" smooth="yes"/>
			<point x="81.01493" y="678"/>
			<point x="79.50746" y="674.23881"/>
			<point x="81" y="672" type="qcurve"/>
			<point x="516" y="47" type="line"/>
			<point x="518.23881" y="44.01493"/>
			<point x="522" y="45.26866"/>
			<point x="522" y="49" type="qcurve"/>
			<point x="522" y="673" type="line" smooth="yes"/>
			<point x="522" y="675.23881"/>
			<point x="519" y="678"/>
		</contour>
		<contour>
			<point x="62" y="650" type="qcurve"/>
			<point x="62" y="27" type="line" smooth="yes"/>
			<point x="62" y="24.76119"/>
			<point x="64.76119" y="22"/>
			<point x="67" y="22" type="qcurve"/>
			<point x="499" y="22" type="line" smooth="yes"/>
			<point x="501.98507" y="22"/>
			<point x="503.49254" y="25.76119"/>
			<point x="502" y="28" type="qcurve"/>
			<point x="68" y="652" type="line"/>
			<point x="65.76119" y="654.98507"/>
			<point x="62" y="654"/>
		</contour>
	</outline>
</glyph>
<glyph name="acutecomb.case" format="2">
	<advance width="0"/>
	<anchor x="154" y="741" name="top"/>
	<anchor x="84" y="554" name="_top"/>
	<outline>
		<contour>
			<point x="208" y="724" type="line"/>
			<point x="62" y="625" type="line"/>
			<point x="52" y="640" type="line"/>
			<point x="194" y="745" type="line"/>
		</contour>
	</outline>
</glyph>
<glyph name="five.dnom" format="2">
	<advance width="355"/>
	<outline>
		<contour>
			<point x="306" y="114" type="qcurve"/>
			<point x="306" y="55"/>
			<point x="225" y="-10"/>
			<point x="167" y="-10" type="qcurve"/>
			<point x="140" y="-10"/>
			<point x="83" y="12"/>
			<point x="65" y="28" type="qcurve"/>
			<point x="77" y="48" type="line"/>
			<point x="98" y="31"/>
			<point x="142" y="12"/>
			<point x="170" y="12" type="qcurve"/>
			<point x="222" y="12"/>
			<point x="284" y="66"/>
			<point x="284" y="112" type="qcurve"/>
			<point x="284" y="155"/>
			<point x="227" y="209"/>
			<point x="177" y="209" type="qcurve"/>
			<point x="140" y="209"/>
			<point x="97" y="186"/>
			<point x="88" y="171" type="qcurve"/>
			<point x="66" y="175" type="line"/>
			<point x="90" y="345" type="line"/>
			<point x="289" y="345" type="line"/>
			<point x="289" y="323" type="line"/>
			<point x="95" y="323" type="line"/>
			<point x="111" y="332" type="line"/>
			<point x="89" y="190" type="line"/>
			<point x="79" y="190" type="line"/>
			<point x="92" y="207"/>
			<point x="145" y="231"/>
			<point x="181" y="231" type="qcurve"/>
			<point x="235" y="231"/>
			<point x="306" y="165"/>
		</contour>
	</outline>
</glyph>
<glyph name="four.dnom" format="2">
	<advance width="390"/>
	<outline>
		<contour>
			<point x="279" y="0" type="line"/>
			<point x="257" y="0" type="line"/>
			<point x="257" y="90" type="line"/>
			<point x="257" y="102" type="line"/>
			<point x="257" y="344" type="line"/>
			<point x="267" y="334" type="line"/>
			<point x="81" y="94" type="line"/>
			<point x="83" y="107" type="line"/>
			<point x="340" y="107" type="line"/>
			<point x="340" y="85" type="line"/>
			<point x="61" y="85" type="line"/>
			<point x="58" y="99" type="line"/>
			<point x="257" y="356" type="line"/>
			<point x="279" y="356" type="line"/>
		</contour>
	</outline>
</glyph>
<glyph name="horncomb.case" format="2">
	<advance width="0"/>
	<anchor x="165" y="525" name="_topright"/>
	<anchor x="165" y="525" name="topright"/>
	<outline>
		<contour>
			<point x="33" y="504" type="qcurve"/>
			<point x="33" y="525" type="line"/>
			<point x="84" y="525"/>
			<point x="129" y="572"/>
			<point x="129" y="624" type="qcurve"/>
			<point x="151" y="624" type="line"/>
			<point x="151" y="561"/>
			<point x="95" y="504"/>
		</contour>
	</outline>
</glyph>
<glyph name="ogonekcomb.case" format="2">
	<advance width="0"/>
	<anchor x="228" y="0" name="_ogonek"/>
	<outline>
		<contour>
			<point x="156" y="-231" type="qcurve" smooth="yes"/>
			<point x="115.95522" y="-231"/>
			<point x="56" y="-175.02985"/>
			<point x="56" y="-131" type="qcurve" smooth="yes"/>
			<point x="56" y="-59.0597"/>
			<point x="173.25373" y="12.8209"/>
			<point x="211" y="17" type="qcurve"/>
			<point x="216" y="7" type="line"/>
			<point x="216" y="-1" type="line"/>
			<point x="161.70149" y="-9.95522"/>
			<point x="78" y="-75.89552"/>
			<point x="78" y="-131" type="qcurve" smooth="yes"/>
			<point x="78" y="-163.67164"/>
			<point x="122.32836" y="-209"/>
			<point x="156" y="-209" type="qcurve" smooth="yes"/>
			<point x="183.68657" y="-209"/>
			<point x="222.02985" y="-181.70149"/>
			<point x="231" y="-164" type="qcurve"/>
			<point x="246" y="-177" type="line"/>
			<point x="235.79104" y="-196.89552"/>
			<point x="190.29851" y="-231"/>
		</contour>
	</outline>
</glyph>
<glyph name="zero.dnom" format="2">
	<advance width="364"/>
	<outline>
		<contour>
			<point x="334" y="174" type="qcurve"/>
			<point x="334" y="97"/>
			<point x="249.67164" y="-10"/>
			<point x="183" y="-10" type="qcurve"/>
			<point x="114.83582" y="-10"/>
			<point x="30" y="97.13433"/>
			<point x="30" y="174" type="qcurve"/>
			<point x="30" y="251.61194"/>
			<point x="112.85075" y="359"/>
			<point x="183" y="359" type="qcurve"/>
			<point x="252.40299" y="359"/>
			<point x="334" y="252"/>
		</contour>
		<contour>
			<point x="53" y="174" type="qcurve"/>
			<point x="53" y="103"/>
			<point x="123.67164" y="12"/>
			<point x="183" y="12" type="qcurve"/>
			<point x="240.83582" y="12"/>
			<point x="311" y="105.23881"/>
			<point x="311" y="174" type="qcurve"/>
			<point x="311" y="244.01493"/>
			<point x="244.04666" y="337"/>
			<point x="183" y="337" type="qcurve"/>
			<point x="121.96055" y="337"/>
			<point x="53" y="245"/>
		</contour>
	</outline>
</glyph>
